%TF.GenerationSoftware,KiCad,Pcbnew,9.0.2*%
%TF.CreationDate,2025-10-08T13:44:56-04:00*%
%TF.ProjectId,pcb,7063622e-6b69-4636-9164-5f7063625858,rev?*%
%TF.SameCoordinates,Original*%
%TF.FileFunction,Copper,L2,Bot*%
%TF.FilePolarity,Positive*%
%FSLAX46Y46*%
G04 Gerber Fmt 4.6, Leading zero omitted, Abs format (unit mm)*
G04 Created by KiCad (PCBNEW 9.0.2) date 2025-10-08 13:44:56*
%MOMM*%
%LPD*%
G01*
G04 APERTURE LIST*
%TA.AperFunction,ComponentPad*%
%ADD10R,1.700000X1.700000*%
%TD*%
%TA.AperFunction,ComponentPad*%
%ADD11C,1.700000*%
%TD*%
%TA.AperFunction,HeatsinkPad*%
%ADD12O,1.000000X2.100000*%
%TD*%
%TA.AperFunction,HeatsinkPad*%
%ADD13O,1.000000X1.600000*%
%TD*%
%TA.AperFunction,ViaPad*%
%ADD14C,0.600000*%
%TD*%
%TA.AperFunction,Conductor*%
%ADD15C,0.200000*%
%TD*%
%TA.AperFunction,Conductor*%
%ADD16C,0.150000*%
%TD*%
G04 APERTURE END LIST*
D10*
%TO.P,J4,1,Pin_1*%
%TO.N,SWCLK*%
X98790000Y-114150000D03*
D11*
%TO.P,J4,2,Pin_2*%
%TO.N,GND*%
X101330000Y-114150000D03*
%TO.P,J4,3,Pin_3*%
%TO.N,SWD*%
X103870000Y-114150000D03*
%TD*%
D10*
%TO.P,J2,1,Pin_1*%
%TO.N,GPIO0*%
X92480000Y-66150000D03*
D11*
%TO.P,J2,2,Pin_2*%
%TO.N,GPIO1*%
X92480000Y-68690000D03*
%TO.P,J2,3,Pin_3*%
%TO.N,GND*%
X92480000Y-71230000D03*
%TO.P,J2,4,Pin_4*%
%TO.N,GPIO2*%
X92480000Y-73770000D03*
%TO.P,J2,5,Pin_5*%
%TO.N,GPIO3*%
X92480000Y-76310000D03*
%TO.P,J2,6,Pin_6*%
%TO.N,GPIO4*%
X92480000Y-78850000D03*
%TO.P,J2,7,Pin_7*%
%TO.N,GPIO5*%
X92480000Y-81390000D03*
%TO.P,J2,8,Pin_8*%
%TO.N,GND*%
X92480000Y-83930000D03*
%TO.P,J2,9,Pin_9*%
%TO.N,GPIO6*%
X92480000Y-86470000D03*
%TO.P,J2,10,Pin_10*%
%TO.N,GPIO7*%
X92480000Y-89010000D03*
%TO.P,J2,11,Pin_11*%
%TO.N,GPIO8*%
X92480000Y-91550000D03*
%TO.P,J2,12,Pin_12*%
%TO.N,NEOPIXEL*%
X92480000Y-94090000D03*
%TO.P,J2,13,Pin_13*%
%TO.N,GND*%
X92480000Y-96630000D03*
%TO.P,J2,14,Pin_14*%
%TO.N,GPIO10*%
X92480000Y-99170000D03*
%TO.P,J2,15,Pin_15*%
%TO.N,GPIO11*%
X92480000Y-101710000D03*
%TO.P,J2,16,Pin_16*%
%TO.N,GPIO12*%
X92480000Y-104250000D03*
%TO.P,J2,17,Pin_17*%
%TO.N,GPIO13*%
X92480000Y-106790000D03*
%TO.P,J2,18,Pin_18*%
%TO.N,GND*%
X92480000Y-109330000D03*
%TO.P,J2,19,Pin_19*%
%TO.N,GPIO14*%
X92480000Y-111870000D03*
%TO.P,J2,20,Pin_20*%
%TO.N,GPIO15*%
X92480000Y-114410000D03*
%TD*%
D10*
%TO.P,J3,1,Pin_1*%
%TO.N,VBUS*%
X110220000Y-66160000D03*
D11*
%TO.P,J3,2,Pin_2*%
%TO.N,GPIO29_ADC3*%
X110220000Y-68700000D03*
%TO.P,J3,3,Pin_3*%
%TO.N,GND*%
X110220000Y-71240000D03*
%TO.P,J3,4,Pin_4*%
%TO.N,GPIO28_ADC2*%
X110220000Y-73780000D03*
%TO.P,J3,5,Pin_5*%
%TO.N,+3V3*%
X110220000Y-76320000D03*
%TO.P,J3,6,Pin_6*%
%TO.N,GPIO27_ADC1*%
X110220000Y-78860000D03*
%TO.P,J3,7,Pin_7*%
%TO.N,GPIO26_ADC0*%
X110220000Y-81400000D03*
%TO.P,J3,8,Pin_8*%
%TO.N,GND*%
X110220000Y-83940000D03*
%TO.P,J3,9,Pin_9*%
%TO.N,GPIO24*%
X110220000Y-86480000D03*
%TO.P,J3,10,Pin_10*%
%TO.N,GPIO23*%
X110220000Y-89020000D03*
%TO.P,J3,11,Pin_11*%
%TO.N,RUN*%
X110220000Y-91560000D03*
%TO.P,J3,12,Pin_12*%
%TO.N,GPIO22*%
X110220000Y-94100000D03*
%TO.P,J3,13,Pin_13*%
%TO.N,GND*%
X110220000Y-96640000D03*
%TO.P,J3,14,Pin_14*%
%TO.N,GPIO21*%
X110220000Y-99180000D03*
%TO.P,J3,15,Pin_15*%
%TO.N,GPIO20*%
X110220000Y-101720000D03*
%TO.P,J3,16,Pin_16*%
%TO.N,GPIO19*%
X110220000Y-104260000D03*
%TO.P,J3,17,Pin_17*%
%TO.N,GPIO18*%
X110220000Y-106800000D03*
%TO.P,J3,18,Pin_18*%
%TO.N,GND*%
X110220000Y-109340000D03*
%TO.P,J3,19,Pin_19*%
%TO.N,GPIO17*%
X110220000Y-111880000D03*
%TO.P,J3,20,Pin_20*%
%TO.N,GPIO16*%
X110220000Y-114420000D03*
%TD*%
D12*
%TO.P,J1,S1,SHIELD*%
%TO.N,GND*%
X105720000Y-70050000D03*
D13*
X105720000Y-65870000D03*
D12*
X97080000Y-70050000D03*
D13*
X97080000Y-65870000D03*
%TD*%
D14*
%TO.N,GND*%
X97360000Y-109340000D03*
X96230000Y-103000000D03*
X96230000Y-102090000D03*
X96220000Y-104780000D03*
X97350000Y-103860000D03*
X97350000Y-104770000D03*
X96220000Y-103870000D03*
X97330000Y-108420000D03*
X97330000Y-107550000D03*
X96250000Y-106590000D03*
X97380000Y-105670000D03*
X97380000Y-106580000D03*
X96250000Y-105680000D03*
%TO.N,NEOPIXEL*%
X99022509Y-94558845D03*
X95704703Y-95374703D03*
X96604847Y-98582845D03*
X102270000Y-103470000D03*
X100470000Y-104470000D03*
%TO.N,GND*%
X105190000Y-83140000D03*
X95108172Y-93274999D03*
X107280000Y-72880000D03*
X98800000Y-80410000D03*
X104880000Y-85140000D03*
X97420000Y-111210000D03*
X95325000Y-79300000D03*
X96210000Y-114700000D03*
X100040000Y-78000000D03*
X105520000Y-72880000D03*
X107710000Y-65960000D03*
X96290000Y-109320000D03*
X96120000Y-87770000D03*
X98940000Y-67640000D03*
X99950000Y-110680000D03*
X102730000Y-111560000D03*
X104730000Y-72030000D03*
X95325000Y-78160000D03*
X102860000Y-102900000D03*
X104940000Y-99990000D03*
X96290000Y-110310000D03*
X95080000Y-113800000D03*
X102730000Y-109730000D03*
X102590000Y-80455000D03*
X99365000Y-98147260D03*
X103920000Y-67640000D03*
X97670000Y-79290000D03*
X98530790Y-83680908D03*
X101340000Y-79150000D03*
X106440000Y-73960000D03*
X103610000Y-93460000D03*
X101380000Y-74630000D03*
X96250000Y-78170000D03*
X107290000Y-73960000D03*
X101370000Y-77960000D03*
X104970000Y-102450000D03*
X106340000Y-110210000D03*
X103900000Y-65890000D03*
X106460000Y-114730000D03*
X103590000Y-90720000D03*
X104960000Y-101150000D03*
X95080000Y-114710000D03*
X105530000Y-73960000D03*
X97315935Y-86375000D03*
X96290000Y-111220000D03*
X107040000Y-84200000D03*
X107590000Y-114720000D03*
X98630000Y-74010000D03*
X96300000Y-108330000D03*
X102580000Y-79160000D03*
X98950000Y-65870000D03*
X95120000Y-65910000D03*
X105210000Y-110220000D03*
X107390000Y-102620000D03*
X100030000Y-75620000D03*
X107160000Y-100310000D03*
X102640000Y-75660000D03*
X96490000Y-80630000D03*
X101325000Y-83200000D03*
X101320000Y-110670000D03*
X103620000Y-92090000D03*
X100390000Y-102870000D03*
X105910000Y-96330000D03*
X107090000Y-97920000D03*
X106790000Y-108680000D03*
X101330000Y-111580000D03*
X106340000Y-111120000D03*
X107590000Y-113810000D03*
X97330000Y-102970000D03*
X97420000Y-110300000D03*
X105690000Y-105090000D03*
X95350000Y-76090000D03*
X98834634Y-86347573D03*
X100000000Y-76810000D03*
X106460000Y-113820000D03*
X96500000Y-79300000D03*
X95340000Y-77040000D03*
X105210000Y-111130000D03*
X101330000Y-109750000D03*
X107070000Y-82270000D03*
X95325000Y-80660000D03*
X101370000Y-76830000D03*
X102720000Y-110650000D03*
X101370000Y-75650000D03*
X96300000Y-107460000D03*
X96694923Y-87892930D03*
X99950000Y-111590000D03*
X107053089Y-85920000D03*
X102610000Y-77970000D03*
X99930000Y-109720000D03*
X105660000Y-104060000D03*
X96360000Y-74100000D03*
X96210000Y-113790000D03*
X95350000Y-75110000D03*
X102640000Y-76840000D03*
X101380000Y-73450000D03*
X106430000Y-72880000D03*
%TO.N,+3V3*%
X101170000Y-102670000D03*
X102787602Y-97049021D03*
X103378000Y-84781695D03*
X101907104Y-88115508D03*
X109100000Y-72550000D03*
X103905000Y-89448899D03*
%TO.N,+1V1*%
X101172836Y-84757164D03*
X103212200Y-90006802D03*
%TO.N,XIN*%
X103100000Y-101560000D03*
X101130000Y-96940000D03*
%TO.N,GPIO0*%
X96528109Y-89368546D03*
%TO.N,GPIO1*%
X96830754Y-90125000D03*
%TO.N,GPIO8*%
X95845090Y-94180000D03*
%TO.N,GPIO2*%
X93690000Y-75080000D03*
X96128000Y-90525000D03*
%TO.N,RUN*%
X104000000Y-94220000D03*
%TO.N,GPIO29_ADC3*%
X106697500Y-89660000D03*
%TO.N,SWCLK*%
X102330000Y-94240000D03*
%TO.N,SWD*%
X103129511Y-94211947D03*
%TO.N,QSPI_SS*%
X97580000Y-81030000D03*
X104150000Y-81640000D03*
%TD*%
D15*
%TO.N,NEOPIXEL*%
X96604847Y-97030000D02*
X96604847Y-96274847D01*
D16*
X96604847Y-96695153D02*
X96604847Y-97030000D01*
X98741155Y-94558845D02*
X96604847Y-96695153D01*
X99022509Y-94558845D02*
X98741155Y-94558845D01*
D15*
X96604847Y-96274847D02*
X95704703Y-95374703D01*
X96604847Y-98582845D02*
X96604847Y-97030000D01*
X101470000Y-103470000D02*
X100470000Y-104470000D01*
X102270000Y-103470000D02*
X101470000Y-103470000D01*
D16*
%TO.N,GND*%
X107053089Y-85920000D02*
X106121500Y-86851589D01*
X98834634Y-86347573D02*
X98807207Y-86375000D01*
X101510000Y-92120000D02*
X100355001Y-93274999D01*
X106936088Y-90236000D02*
X109094000Y-88078088D01*
X106121500Y-89898588D02*
X106458912Y-90236000D01*
X97406754Y-88604761D02*
X96694923Y-87892930D01*
X100844092Y-83680908D02*
X98530790Y-83680908D01*
X98807207Y-86375000D02*
X97315935Y-86375000D01*
X109094000Y-88078088D02*
X109094000Y-85066000D01*
X106121500Y-86851589D02*
X106121500Y-89898588D01*
D15*
X99930000Y-109720000D02*
X99690000Y-109480000D01*
D16*
X110220000Y-109340000D02*
X107450000Y-109340000D01*
X107450000Y-109340000D02*
X106790000Y-108680000D01*
X109094000Y-85066000D02*
X110220000Y-83940000D01*
X97315935Y-86375000D02*
X97315935Y-86574065D01*
X97406754Y-90976417D02*
X97406754Y-88604761D01*
D15*
X99365000Y-101845000D02*
X99365000Y-98147260D01*
D16*
X95108172Y-93274999D02*
X93640000Y-91806827D01*
D15*
X100390000Y-102870000D02*
X99365000Y-101845000D01*
X99660000Y-109480000D02*
X99365000Y-109185000D01*
D16*
X95108172Y-93274999D02*
X97406754Y-90976417D01*
X97315935Y-86574065D02*
X96120000Y-87770000D01*
D15*
X99365000Y-109185000D02*
X99365000Y-98147260D01*
D16*
X100355001Y-93274999D02*
X95108172Y-93274999D01*
X93640000Y-85090000D02*
X92480000Y-83930000D01*
X101530000Y-92100000D02*
X101510000Y-92120000D01*
X106458912Y-90236000D02*
X106936088Y-90236000D01*
X93640000Y-91806827D02*
X93640000Y-85090000D01*
D15*
X99690000Y-109480000D02*
X99660000Y-109480000D01*
D16*
X101325000Y-83200000D02*
X100844092Y-83680908D01*
%TO.N,+3V3*%
X108970000Y-72680000D02*
X108970000Y-76060000D01*
X109100000Y-72550000D02*
X108970000Y-72680000D01*
X108970000Y-76060000D02*
X109180000Y-76270000D01*
X103378000Y-84781695D02*
X103378000Y-87030000D01*
X101907104Y-88115508D02*
X102578700Y-88115508D01*
X110220000Y-76270000D02*
X109820000Y-75870000D01*
X102102581Y-96364000D02*
X102787602Y-97049021D01*
X102992612Y-87030000D02*
X101907104Y-88115508D01*
X100106977Y-101606977D02*
X100106977Y-97148435D01*
X100106977Y-97148435D02*
X100891412Y-96364000D01*
X103378000Y-87030000D02*
X102992612Y-87030000D01*
X100891412Y-96364000D02*
X102102581Y-96364000D01*
X101170000Y-102670000D02*
X100106977Y-101606977D01*
X103905000Y-89441808D02*
X103905000Y-89448899D01*
X102578700Y-88115508D02*
X103905000Y-89441808D01*
X109180000Y-76270000D02*
X110220000Y-76270000D01*
%TO.N,+1V1*%
X101172836Y-84757164D02*
X101172836Y-88812836D01*
X101172836Y-88812836D02*
X102366802Y-90006802D01*
X102366802Y-90006802D02*
X103212200Y-90006802D01*
%TO.N,XIN*%
X101120545Y-96949455D02*
X101013853Y-96949455D01*
X100457977Y-97505331D02*
X100457977Y-98917977D01*
X100457977Y-98917977D02*
X103100000Y-101560000D01*
X101130000Y-96940000D02*
X101120545Y-96949455D01*
X101013853Y-96949455D02*
X100457977Y-97505331D01*
%TO.N,GPIO0*%
X94750000Y-87590437D02*
X94750000Y-68330000D01*
X96528109Y-89368546D02*
X94750000Y-87590437D01*
X94750000Y-68330000D02*
X92480000Y-66060000D01*
%TO.N,GPIO1*%
X96295389Y-89949000D02*
X96654754Y-89949000D01*
X94351000Y-88004612D02*
X94351000Y-70471000D01*
X94351000Y-70471000D02*
X92480000Y-68600000D01*
X96295389Y-89949000D02*
X94351000Y-88004612D01*
X96654754Y-89949000D02*
X96830754Y-90125000D01*
%TO.N,GPIO8*%
X92480000Y-91550000D02*
X92480000Y-92470000D01*
X92480000Y-92470000D02*
X94190000Y-94180000D01*
X95040000Y-94180000D02*
X95845090Y-94180000D01*
X92480000Y-92190000D02*
X92480000Y-91460000D01*
%TO.N,GPIO2*%
X94000000Y-88150000D02*
X94000000Y-75390000D01*
X96128000Y-90525000D02*
X96128000Y-90278000D01*
X96128000Y-90278000D02*
X94000000Y-88150000D01*
X94000000Y-75390000D02*
X93690000Y-75080000D01*
%TO.N,RUN*%
X107510000Y-94220000D02*
X110220000Y-91510000D01*
X104000000Y-94220000D02*
X107510000Y-94220000D01*
%TO.N,GPIO29_ADC3*%
X108400000Y-87950000D02*
X108400000Y-69040000D01*
X108790000Y-68650000D02*
X110220000Y-68650000D01*
X108347500Y-88002500D02*
X108400000Y-87950000D01*
X108400000Y-69040000D02*
X108790000Y-68650000D01*
X106697500Y-89660000D02*
X108347500Y-88010000D01*
X108347500Y-88010000D02*
X108347500Y-88002500D01*
%TO.N,SWCLK*%
X98789000Y-97908672D02*
X98789000Y-98385848D01*
X102330000Y-94430000D02*
X99188740Y-97571260D01*
X98789000Y-98385848D02*
X98790000Y-98386848D01*
X99126412Y-97571260D02*
X98789000Y-97908672D01*
X102330000Y-94240000D02*
X102330000Y-94430000D01*
X98790000Y-98386848D02*
X98790000Y-114150000D01*
X99188740Y-97571260D02*
X99126412Y-97571260D01*
%TO.N,SWD*%
X103129511Y-94211947D02*
X103870000Y-94952436D01*
X103870000Y-94952436D02*
X103870000Y-114150000D01*
%TO.N,QSPI_SS*%
X103680000Y-81030000D02*
X104000000Y-81350000D01*
X104000000Y-81490000D02*
X104150000Y-81640000D01*
X104000000Y-81350000D02*
X104000000Y-81490000D01*
X97580000Y-81030000D02*
X103680000Y-81030000D01*
%TO.N,GPIO8*%
X94190000Y-94180000D02*
X95040000Y-94180000D01*
%TD*%
%TA.AperFunction,Conductor*%
%TO.N,GND*%
G36*
X96085967Y-65090185D02*
G01*
X96131722Y-65142989D01*
X96141666Y-65212147D01*
X96133489Y-65241952D01*
X96118430Y-65278306D01*
X96118427Y-65278318D01*
X96080000Y-65471504D01*
X96080000Y-65620000D01*
X96780000Y-65620000D01*
X96780000Y-66120000D01*
X96080000Y-66120000D01*
X96080000Y-66268495D01*
X96118427Y-66461681D01*
X96118430Y-66461693D01*
X96193807Y-66643671D01*
X96193814Y-66643684D01*
X96303248Y-66807462D01*
X96303251Y-66807466D01*
X96442533Y-66946748D01*
X96442537Y-66946751D01*
X96606315Y-67056185D01*
X96606328Y-67056192D01*
X96788308Y-67131569D01*
X96830000Y-67139862D01*
X96830000Y-66336988D01*
X96839940Y-66354205D01*
X96895795Y-66410060D01*
X96964204Y-66449556D01*
X97040504Y-66470000D01*
X97119496Y-66470000D01*
X97195796Y-66449556D01*
X97264205Y-66410060D01*
X97320060Y-66354205D01*
X97330000Y-66336988D01*
X97330000Y-67139862D01*
X97371690Y-67131569D01*
X97371692Y-67131569D01*
X97553671Y-67056192D01*
X97553684Y-67056185D01*
X97717462Y-66946751D01*
X97717466Y-66946748D01*
X97856748Y-66807466D01*
X97856751Y-66807462D01*
X97966185Y-66643684D01*
X97966192Y-66643671D01*
X98041569Y-66461693D01*
X98041572Y-66461681D01*
X98079999Y-66268495D01*
X98080000Y-66268492D01*
X98080000Y-66120000D01*
X97380000Y-66120000D01*
X97380000Y-65620000D01*
X98080000Y-65620000D01*
X98080000Y-65471508D01*
X98079999Y-65471504D01*
X98041572Y-65278318D01*
X98041569Y-65278306D01*
X98026511Y-65241952D01*
X98019042Y-65172483D01*
X98050317Y-65110004D01*
X98110406Y-65074352D01*
X98141072Y-65070500D01*
X104658928Y-65070500D01*
X104725967Y-65090185D01*
X104771722Y-65142989D01*
X104781666Y-65212147D01*
X104773489Y-65241952D01*
X104758430Y-65278306D01*
X104758427Y-65278318D01*
X104720000Y-65471504D01*
X104720000Y-65620000D01*
X105420000Y-65620000D01*
X105420000Y-66120000D01*
X104720000Y-66120000D01*
X104720000Y-66268495D01*
X104758427Y-66461681D01*
X104758430Y-66461693D01*
X104833807Y-66643671D01*
X104833814Y-66643684D01*
X104943248Y-66807462D01*
X104943251Y-66807466D01*
X105082533Y-66946748D01*
X105082537Y-66946751D01*
X105246315Y-67056185D01*
X105246328Y-67056192D01*
X105428308Y-67131569D01*
X105470000Y-67139862D01*
X105470000Y-66336988D01*
X105479940Y-66354205D01*
X105535795Y-66410060D01*
X105604204Y-66449556D01*
X105680504Y-66470000D01*
X105759496Y-66470000D01*
X105835796Y-66449556D01*
X105904205Y-66410060D01*
X105960060Y-66354205D01*
X105970000Y-66336988D01*
X105970000Y-67139862D01*
X106011690Y-67131569D01*
X106011692Y-67131569D01*
X106193671Y-67056192D01*
X106193684Y-67056185D01*
X106357462Y-66946751D01*
X106357466Y-66946748D01*
X106496748Y-66807466D01*
X106496751Y-66807462D01*
X106606185Y-66643684D01*
X106606192Y-66643671D01*
X106681569Y-66461693D01*
X106681572Y-66461681D01*
X106719999Y-66268495D01*
X106720000Y-66268492D01*
X106720000Y-66120000D01*
X106020000Y-66120000D01*
X106020000Y-65620000D01*
X106720000Y-65620000D01*
X106720000Y-65471508D01*
X106719999Y-65471504D01*
X106681572Y-65278318D01*
X106681569Y-65278306D01*
X106666511Y-65241952D01*
X106659042Y-65172483D01*
X106690317Y-65110004D01*
X106750406Y-65074352D01*
X106781072Y-65070500D01*
X108956959Y-65070500D01*
X109023998Y-65090185D01*
X109069753Y-65142989D01*
X109079697Y-65212147D01*
X109074330Y-65230862D01*
X109074864Y-65231008D01*
X109072415Y-65240008D01*
X109069500Y-65265131D01*
X109069500Y-67054856D01*
X109069502Y-67054882D01*
X109072413Y-67079987D01*
X109072415Y-67079991D01*
X109117793Y-67182764D01*
X109117794Y-67182765D01*
X109197235Y-67262206D01*
X109300009Y-67307585D01*
X109325135Y-67310500D01*
X110062873Y-67310499D01*
X110129910Y-67330183D01*
X110175665Y-67382987D01*
X110185609Y-67452146D01*
X110156584Y-67515702D01*
X110097806Y-67553476D01*
X110082270Y-67556972D01*
X109950589Y-67577829D01*
X109778363Y-67633787D01*
X109778360Y-67633788D01*
X109617002Y-67716006D01*
X109470505Y-67822441D01*
X109470500Y-67822445D01*
X109342445Y-67950500D01*
X109342441Y-67950505D01*
X109236006Y-68097001D01*
X109210299Y-68147453D01*
X109180062Y-68206796D01*
X109132090Y-68257591D01*
X109069579Y-68274500D01*
X108740563Y-68274500D01*
X108717929Y-68280564D01*
X108717930Y-68280565D01*
X108645060Y-68300090D01*
X108645059Y-68300091D01*
X108559436Y-68349526D01*
X108099526Y-68809436D01*
X108050091Y-68895059D01*
X108050091Y-68895060D01*
X108050090Y-68895062D01*
X108024500Y-68990565D01*
X108024500Y-68990567D01*
X108024500Y-87750601D01*
X108004815Y-87817640D01*
X107988181Y-87838282D01*
X106803282Y-89023181D01*
X106741959Y-89056666D01*
X106715601Y-89059500D01*
X106618443Y-89059500D01*
X106465716Y-89100423D01*
X106465709Y-89100426D01*
X106328790Y-89179475D01*
X106328782Y-89179481D01*
X106216981Y-89291282D01*
X106216975Y-89291290D01*
X106137926Y-89428209D01*
X106137923Y-89428216D01*
X106097000Y-89580943D01*
X106097000Y-89739057D01*
X106136790Y-89887553D01*
X106137923Y-89891783D01*
X106137926Y-89891790D01*
X106216975Y-90028709D01*
X106216979Y-90028714D01*
X106216980Y-90028716D01*
X106328784Y-90140520D01*
X106328786Y-90140521D01*
X106328790Y-90140524D01*
X106465709Y-90219573D01*
X106465716Y-90219577D01*
X106618443Y-90260500D01*
X106618445Y-90260500D01*
X106776555Y-90260500D01*
X106776557Y-90260500D01*
X106929284Y-90219577D01*
X107066216Y-90140520D01*
X107178020Y-90028716D01*
X107257077Y-89891784D01*
X107298000Y-89739057D01*
X107298000Y-89641899D01*
X107317685Y-89574860D01*
X107334319Y-89554218D01*
X107969089Y-88919448D01*
X108647974Y-88240563D01*
X108647975Y-88240562D01*
X108653661Y-88230712D01*
X108657954Y-88224942D01*
X108661083Y-88222584D01*
X108669760Y-88211275D01*
X108700474Y-88180563D01*
X108700475Y-88180562D01*
X108749910Y-88094938D01*
X108775500Y-87999435D01*
X108775500Y-84595136D01*
X108795185Y-84528097D01*
X108847989Y-84482342D01*
X108917147Y-84472398D01*
X108980703Y-84501423D01*
X109009985Y-84538841D01*
X109065375Y-84647550D01*
X109104728Y-84701716D01*
X109737037Y-84069408D01*
X109754075Y-84132993D01*
X109819901Y-84247007D01*
X109912993Y-84340099D01*
X110027007Y-84405925D01*
X110090590Y-84422962D01*
X109458282Y-85055269D01*
X109458282Y-85055270D01*
X109512449Y-85094624D01*
X109701780Y-85191094D01*
X109730705Y-85200492D01*
X109788381Y-85239929D01*
X109815580Y-85304287D01*
X109803667Y-85373134D01*
X109756424Y-85424610D01*
X109748685Y-85428908D01*
X109617004Y-85496004D01*
X109470505Y-85602441D01*
X109470500Y-85602445D01*
X109342445Y-85730500D01*
X109342441Y-85730505D01*
X109236006Y-85877002D01*
X109153788Y-86038360D01*
X109153787Y-86038363D01*
X109097829Y-86210589D01*
X109069500Y-86389448D01*
X109069500Y-86570551D01*
X109097829Y-86749410D01*
X109153787Y-86921636D01*
X109153788Y-86921639D01*
X109203669Y-87019533D01*
X109230910Y-87072997D01*
X109236006Y-87082997D01*
X109342441Y-87229494D01*
X109342445Y-87229499D01*
X109470500Y-87357554D01*
X109470505Y-87357558D01*
X109540393Y-87408334D01*
X109617006Y-87463996D01*
X109711560Y-87512174D01*
X109778360Y-87546211D01*
X109778363Y-87546212D01*
X109864476Y-87574191D01*
X109950591Y-87602171D01*
X110023639Y-87613740D01*
X110110678Y-87627527D01*
X110173813Y-87657456D01*
X110210744Y-87716768D01*
X110209746Y-87786631D01*
X110171136Y-87844863D01*
X110110678Y-87872473D01*
X109950589Y-87897829D01*
X109778363Y-87953787D01*
X109778360Y-87953788D01*
X109617002Y-88036006D01*
X109470505Y-88142441D01*
X109470500Y-88142445D01*
X109342445Y-88270500D01*
X109342441Y-88270505D01*
X109236006Y-88417002D01*
X109153788Y-88578360D01*
X109153787Y-88578363D01*
X109097829Y-88750589D01*
X109069500Y-88929448D01*
X109069500Y-89110551D01*
X109097829Y-89289410D01*
X109153787Y-89461636D01*
X109153788Y-89461639D01*
X109203669Y-89559533D01*
X109230910Y-89612997D01*
X109236006Y-89622997D01*
X109342441Y-89769494D01*
X109342445Y-89769499D01*
X109470500Y-89897554D01*
X109470505Y-89897558D01*
X109598287Y-89990396D01*
X109617006Y-90003996D01*
X109699335Y-90045945D01*
X109778360Y-90086211D01*
X109778363Y-90086212D01*
X109864476Y-90114191D01*
X109950591Y-90142171D01*
X110023639Y-90153740D01*
X110110678Y-90167527D01*
X110173813Y-90197456D01*
X110210744Y-90256768D01*
X110209746Y-90326631D01*
X110171136Y-90384863D01*
X110110678Y-90412473D01*
X109950589Y-90437829D01*
X109778363Y-90493787D01*
X109778360Y-90493788D01*
X109617002Y-90576006D01*
X109470505Y-90682441D01*
X109470500Y-90682445D01*
X109342445Y-90810500D01*
X109342441Y-90810505D01*
X109236006Y-90957002D01*
X109153788Y-91118360D01*
X109153787Y-91118363D01*
X109097829Y-91290589D01*
X109069500Y-91469448D01*
X109069500Y-91650551D01*
X109097829Y-91829412D01*
X109140983Y-91962229D01*
X109142978Y-92032070D01*
X109110733Y-92088227D01*
X107390782Y-93808181D01*
X107329459Y-93841666D01*
X107303101Y-93844500D01*
X104525098Y-93844500D01*
X104458059Y-93824815D01*
X104437417Y-93808181D01*
X104368717Y-93739481D01*
X104368709Y-93739475D01*
X104231790Y-93660426D01*
X104231786Y-93660424D01*
X104231784Y-93660423D01*
X104079057Y-93619500D01*
X103920943Y-93619500D01*
X103768216Y-93660423D01*
X103768215Y-93660423D01*
X103633097Y-93738432D01*
X103565196Y-93754903D01*
X103505905Y-93734382D01*
X103505266Y-93735490D01*
X103499518Y-93732171D01*
X103499170Y-93732051D01*
X103498673Y-93731683D01*
X103361301Y-93652373D01*
X103361297Y-93652371D01*
X103361295Y-93652370D01*
X103208568Y-93611447D01*
X103050454Y-93611447D01*
X102897727Y-93652370D01*
X102897726Y-93652370D01*
X102767459Y-93727579D01*
X102699559Y-93744050D01*
X102643461Y-93727578D01*
X102561790Y-93680426D01*
X102561786Y-93680424D01*
X102561784Y-93680423D01*
X102409057Y-93639500D01*
X102250943Y-93639500D01*
X102098216Y-93680423D01*
X102098209Y-93680426D01*
X101961290Y-93759475D01*
X101961282Y-93759481D01*
X101849481Y-93871282D01*
X101849475Y-93871290D01*
X101770426Y-94008209D01*
X101770423Y-94008216D01*
X101729500Y-94160943D01*
X101729500Y-94319057D01*
X101749038Y-94391974D01*
X101749095Y-94392186D01*
X101747432Y-94462036D01*
X101717001Y-94511960D01*
X99040674Y-97188287D01*
X98988945Y-97218154D01*
X98988981Y-97218240D01*
X98988331Y-97218509D01*
X98985091Y-97220380D01*
X98981474Y-97221349D01*
X98981471Y-97221350D01*
X98895852Y-97270782D01*
X98895847Y-97270786D01*
X98558438Y-97608197D01*
X98488527Y-97678107D01*
X98439089Y-97763734D01*
X98439090Y-97763734D01*
X98414573Y-97855233D01*
X98414572Y-97855237D01*
X98413500Y-97859237D01*
X98413500Y-98435745D01*
X98414500Y-98451004D01*
X98414500Y-112875500D01*
X98394815Y-112942539D01*
X98342011Y-112988294D01*
X98290500Y-112999500D01*
X97895143Y-112999500D01*
X97895117Y-112999502D01*
X97870012Y-113002413D01*
X97870008Y-113002415D01*
X97767235Y-113047793D01*
X97687794Y-113127234D01*
X97642415Y-113230006D01*
X97642415Y-113230008D01*
X97639500Y-113255131D01*
X97639500Y-115044856D01*
X97639502Y-115044882D01*
X97642413Y-115069987D01*
X97642415Y-115069991D01*
X97687793Y-115172764D01*
X97687794Y-115172765D01*
X97767235Y-115252206D01*
X97870009Y-115297585D01*
X97895135Y-115300500D01*
X99684864Y-115300499D01*
X99684879Y-115300497D01*
X99684882Y-115300497D01*
X99709987Y-115297586D01*
X99709988Y-115297585D01*
X99709991Y-115297585D01*
X99812765Y-115252206D01*
X99892206Y-115172765D01*
X99937585Y-115069991D01*
X99940500Y-115044865D01*
X99940499Y-114913076D01*
X99960183Y-114846040D01*
X100012987Y-114800285D01*
X100082145Y-114790341D01*
X100145701Y-114819365D01*
X100172495Y-114853600D01*
X100172829Y-114853396D01*
X100174607Y-114856297D01*
X100174977Y-114856770D01*
X100175373Y-114857547D01*
X100214728Y-114911716D01*
X100847037Y-114279408D01*
X100864075Y-114342993D01*
X100929901Y-114457007D01*
X101022993Y-114550099D01*
X101137007Y-114615925D01*
X101200590Y-114632962D01*
X100568282Y-115265269D01*
X100568282Y-115265270D01*
X100622452Y-115304626D01*
X100622451Y-115304626D01*
X100642841Y-115315015D01*
X100693638Y-115362989D01*
X100710433Y-115430810D01*
X100687896Y-115496945D01*
X100633181Y-115540397D01*
X100586547Y-115549500D01*
X93250595Y-115549500D01*
X93183556Y-115529815D01*
X93137801Y-115477011D01*
X93127857Y-115407853D01*
X93156882Y-115344297D01*
X93177710Y-115325182D01*
X93229495Y-115287558D01*
X93229497Y-115287555D01*
X93229501Y-115287553D01*
X93357553Y-115159501D01*
X93463996Y-115012994D01*
X93546211Y-114851639D01*
X93602171Y-114679409D01*
X93620081Y-114566331D01*
X93630500Y-114500551D01*
X93630500Y-114319448D01*
X93614019Y-114215397D01*
X93602171Y-114140591D01*
X93565924Y-114029031D01*
X93546212Y-113968363D01*
X93546211Y-113968360D01*
X93517740Y-113912484D01*
X93463996Y-113807006D01*
X93419873Y-113746275D01*
X93357558Y-113660505D01*
X93357554Y-113660500D01*
X93229499Y-113532445D01*
X93229494Y-113532441D01*
X93082997Y-113426006D01*
X93082996Y-113426005D01*
X93082994Y-113426004D01*
X93006294Y-113386923D01*
X92921639Y-113343788D01*
X92921636Y-113343787D01*
X92749410Y-113287829D01*
X92589321Y-113262473D01*
X92526186Y-113232544D01*
X92489255Y-113173232D01*
X92490253Y-113103370D01*
X92528863Y-113045137D01*
X92589321Y-113017527D01*
X92659425Y-113006422D01*
X92749409Y-112992171D01*
X92921639Y-112936211D01*
X93082994Y-112853996D01*
X93229501Y-112747553D01*
X93357553Y-112619501D01*
X93463996Y-112472994D01*
X93546211Y-112311639D01*
X93602171Y-112139409D01*
X93616765Y-112047259D01*
X93630500Y-111960551D01*
X93630500Y-111779448D01*
X93614019Y-111675397D01*
X93602171Y-111600591D01*
X93565924Y-111489031D01*
X93546212Y-111428363D01*
X93546211Y-111428360D01*
X93501426Y-111340466D01*
X93463996Y-111267006D01*
X93364823Y-111130505D01*
X93357558Y-111120505D01*
X93357554Y-111120500D01*
X93229499Y-110992445D01*
X93229494Y-110992441D01*
X93082995Y-110886004D01*
X92951314Y-110818908D01*
X92900519Y-110770934D01*
X92883724Y-110703113D01*
X92906262Y-110636978D01*
X92960977Y-110593527D01*
X92969295Y-110590492D01*
X92998217Y-110581095D01*
X93187554Y-110484622D01*
X93241716Y-110445270D01*
X93241717Y-110445270D01*
X92609408Y-109812962D01*
X92672993Y-109795925D01*
X92787007Y-109730099D01*
X92880099Y-109637007D01*
X92945925Y-109522993D01*
X92962962Y-109459409D01*
X93595270Y-110091717D01*
X93595270Y-110091716D01*
X93634622Y-110037554D01*
X93731095Y-109848217D01*
X93796757Y-109646130D01*
X93796757Y-109646127D01*
X93830000Y-109436246D01*
X93830000Y-109223753D01*
X93796757Y-109013872D01*
X93796757Y-109013869D01*
X93731095Y-108811782D01*
X93634624Y-108622449D01*
X93595270Y-108568282D01*
X93595269Y-108568282D01*
X92962962Y-109200590D01*
X92945925Y-109137007D01*
X92880099Y-109022993D01*
X92787007Y-108929901D01*
X92672993Y-108864075D01*
X92609409Y-108847037D01*
X93241716Y-108214728D01*
X93187550Y-108175375D01*
X92998217Y-108078904D01*
X92969292Y-108069506D01*
X92911616Y-108030068D01*
X92884418Y-107965710D01*
X92896333Y-107896863D01*
X92943577Y-107845388D01*
X92951315Y-107841090D01*
X93082994Y-107773996D01*
X93229501Y-107667553D01*
X93357553Y-107539501D01*
X93463996Y-107392994D01*
X93546211Y-107231639D01*
X93602171Y-107059409D01*
X93616765Y-106967259D01*
X93630500Y-106880551D01*
X93630500Y-106699448D01*
X93614019Y-106595397D01*
X93602171Y-106520591D01*
X93565924Y-106409031D01*
X93546212Y-106348363D01*
X93546211Y-106348360D01*
X93501426Y-106260466D01*
X93463996Y-106187006D01*
X93364823Y-106050505D01*
X93357558Y-106040505D01*
X93357554Y-106040500D01*
X93229499Y-105912445D01*
X93229494Y-105912441D01*
X93082997Y-105806006D01*
X93082996Y-105806005D01*
X93082994Y-105806004D01*
X93031300Y-105779664D01*
X92921639Y-105723788D01*
X92921636Y-105723787D01*
X92749410Y-105667829D01*
X92589321Y-105642473D01*
X92526186Y-105612544D01*
X92489255Y-105553232D01*
X92490253Y-105483370D01*
X92528863Y-105425137D01*
X92589321Y-105397527D01*
X92659425Y-105386422D01*
X92749409Y-105372171D01*
X92921639Y-105316211D01*
X93082994Y-105233996D01*
X93229501Y-105127553D01*
X93357553Y-104999501D01*
X93463996Y-104852994D01*
X93546211Y-104691639D01*
X93602171Y-104519409D01*
X93622518Y-104390943D01*
X93630500Y-104340551D01*
X93630500Y-104159448D01*
X93614019Y-104055397D01*
X93602171Y-103980591D01*
X93565155Y-103866666D01*
X93546212Y-103808363D01*
X93546211Y-103808360D01*
X93491910Y-103701790D01*
X93463996Y-103647006D01*
X93450396Y-103628287D01*
X93357558Y-103500505D01*
X93357554Y-103500500D01*
X93229499Y-103372445D01*
X93229494Y-103372441D01*
X93082997Y-103266006D01*
X93082996Y-103266005D01*
X93082994Y-103266004D01*
X93028444Y-103238209D01*
X92921639Y-103183788D01*
X92921636Y-103183787D01*
X92749410Y-103127829D01*
X92589321Y-103102473D01*
X92526186Y-103072544D01*
X92489255Y-103013232D01*
X92490253Y-102943370D01*
X92528863Y-102885137D01*
X92589321Y-102857527D01*
X92659425Y-102846422D01*
X92749409Y-102832171D01*
X92921639Y-102776211D01*
X93082994Y-102693996D01*
X93229501Y-102587553D01*
X93357553Y-102459501D01*
X93463996Y-102312994D01*
X93546211Y-102151639D01*
X93602171Y-101979409D01*
X93624641Y-101837539D01*
X93630500Y-101800551D01*
X93630500Y-101619448D01*
X93614019Y-101515397D01*
X93602171Y-101440591D01*
X93565924Y-101329031D01*
X93546212Y-101268363D01*
X93546211Y-101268360D01*
X93501426Y-101180466D01*
X93463996Y-101107006D01*
X93390001Y-101005160D01*
X93357558Y-100960505D01*
X93357554Y-100960500D01*
X93229499Y-100832445D01*
X93229494Y-100832441D01*
X93082997Y-100726006D01*
X93082996Y-100726005D01*
X93082994Y-100726004D01*
X93031300Y-100699664D01*
X92921639Y-100643788D01*
X92921636Y-100643787D01*
X92749410Y-100587829D01*
X92589321Y-100562473D01*
X92526186Y-100532544D01*
X92489255Y-100473232D01*
X92490253Y-100403370D01*
X92528863Y-100345137D01*
X92589321Y-100317527D01*
X92659425Y-100306422D01*
X92749409Y-100292171D01*
X92921639Y-100236211D01*
X93082994Y-100153996D01*
X93229501Y-100047553D01*
X93357553Y-99919501D01*
X93463996Y-99772994D01*
X93546211Y-99611639D01*
X93602171Y-99439409D01*
X93616765Y-99347259D01*
X93630500Y-99260551D01*
X93630500Y-99079448D01*
X93610244Y-98951561D01*
X93602171Y-98900591D01*
X93565924Y-98789031D01*
X93546212Y-98728363D01*
X93546211Y-98728360D01*
X93501426Y-98640466D01*
X93463996Y-98567006D01*
X93418066Y-98503788D01*
X93357558Y-98420505D01*
X93357554Y-98420500D01*
X93229499Y-98292445D01*
X93229494Y-98292441D01*
X93082995Y-98186004D01*
X92951314Y-98118908D01*
X92900519Y-98070934D01*
X92883724Y-98003113D01*
X92906262Y-97936978D01*
X92960977Y-97893527D01*
X92969295Y-97890492D01*
X92998217Y-97881095D01*
X93187554Y-97784622D01*
X93241716Y-97745270D01*
X93241717Y-97745270D01*
X92609408Y-97112962D01*
X92672993Y-97095925D01*
X92787007Y-97030099D01*
X92880099Y-96937007D01*
X92945925Y-96822993D01*
X92962962Y-96759409D01*
X93595270Y-97391717D01*
X93595270Y-97391716D01*
X93634622Y-97337554D01*
X93731095Y-97148217D01*
X93796757Y-96946130D01*
X93796757Y-96946127D01*
X93830000Y-96736246D01*
X93830000Y-96523753D01*
X93796757Y-96313872D01*
X93796757Y-96313869D01*
X93731095Y-96111782D01*
X93634624Y-95922449D01*
X93595270Y-95868282D01*
X93595269Y-95868282D01*
X92962962Y-96500590D01*
X92945925Y-96437007D01*
X92880099Y-96322993D01*
X92787007Y-96229901D01*
X92672993Y-96164075D01*
X92609409Y-96147037D01*
X93241716Y-95514728D01*
X93187550Y-95475375D01*
X92998217Y-95378904D01*
X92969292Y-95369506D01*
X92911616Y-95330068D01*
X92884418Y-95265710D01*
X92896333Y-95196863D01*
X92943577Y-95145388D01*
X92951315Y-95141090D01*
X93082994Y-95073996D01*
X93229501Y-94967553D01*
X93357553Y-94839501D01*
X93463996Y-94692994D01*
X93546211Y-94531639D01*
X93552605Y-94511960D01*
X93597567Y-94373580D01*
X93637004Y-94315904D01*
X93701362Y-94288705D01*
X93770209Y-94300619D01*
X93803179Y-94324216D01*
X93889525Y-94410562D01*
X93959438Y-94480475D01*
X94045062Y-94529910D01*
X94084541Y-94540489D01*
X94084542Y-94540489D01*
X94096380Y-94543661D01*
X94140564Y-94555500D01*
X94140565Y-94555500D01*
X94990565Y-94555500D01*
X95319992Y-94555500D01*
X95349432Y-94564144D01*
X95379419Y-94570668D01*
X95384434Y-94574422D01*
X95387031Y-94575185D01*
X95407673Y-94591819D01*
X95458857Y-94643003D01*
X95492342Y-94704326D01*
X95487358Y-94774018D01*
X95445486Y-94829951D01*
X95433176Y-94838071D01*
X95335990Y-94894180D01*
X95335985Y-94894184D01*
X95224184Y-95005985D01*
X95224178Y-95005993D01*
X95145129Y-95142912D01*
X95145126Y-95142919D01*
X95104203Y-95295646D01*
X95104203Y-95453760D01*
X95120540Y-95514728D01*
X95145126Y-95606486D01*
X95145129Y-95606493D01*
X95224178Y-95743412D01*
X95224182Y-95743417D01*
X95224183Y-95743419D01*
X95335987Y-95855223D01*
X95335989Y-95855224D01*
X95335993Y-95855227D01*
X95394967Y-95889275D01*
X95472919Y-95934280D01*
X95625646Y-95975203D01*
X95687448Y-95975203D01*
X95754487Y-95994888D01*
X95775129Y-96011522D01*
X96168028Y-96404421D01*
X96201513Y-96465744D01*
X96204347Y-96492102D01*
X96204347Y-98082747D01*
X96184662Y-98149786D01*
X96168028Y-98170428D01*
X96124328Y-98214127D01*
X96124322Y-98214135D01*
X96045273Y-98351054D01*
X96045270Y-98351061D01*
X96004347Y-98503788D01*
X96004347Y-98661902D01*
X96041018Y-98798758D01*
X96045270Y-98814628D01*
X96045273Y-98814635D01*
X96124322Y-98951554D01*
X96124326Y-98951559D01*
X96124327Y-98951561D01*
X96236131Y-99063365D01*
X96236133Y-99063366D01*
X96236137Y-99063369D01*
X96373056Y-99142418D01*
X96373063Y-99142422D01*
X96525790Y-99183345D01*
X96525792Y-99183345D01*
X96683902Y-99183345D01*
X96683904Y-99183345D01*
X96836631Y-99142422D01*
X96973563Y-99063365D01*
X97085367Y-98951561D01*
X97164424Y-98814629D01*
X97205347Y-98661902D01*
X97205347Y-98503788D01*
X97164424Y-98351061D01*
X97154389Y-98333680D01*
X97085371Y-98214135D01*
X97085365Y-98214127D01*
X97041666Y-98170428D01*
X97008181Y-98109105D01*
X97005347Y-98082747D01*
X97005347Y-96877052D01*
X97025032Y-96810013D01*
X97041666Y-96789371D01*
X97855835Y-95975202D01*
X98678500Y-95152536D01*
X98739821Y-95119053D01*
X98798271Y-95120443D01*
X98943452Y-95159345D01*
X98943454Y-95159345D01*
X99101564Y-95159345D01*
X99101566Y-95159345D01*
X99254293Y-95118422D01*
X99391225Y-95039365D01*
X99503029Y-94927561D01*
X99582086Y-94790629D01*
X99623009Y-94637902D01*
X99623009Y-94479788D01*
X99582086Y-94327061D01*
X99582082Y-94327054D01*
X99503033Y-94190135D01*
X99503027Y-94190127D01*
X99391226Y-94078326D01*
X99391218Y-94078320D01*
X99254299Y-93999271D01*
X99254295Y-93999269D01*
X99254293Y-93999268D01*
X99101566Y-93958345D01*
X98943452Y-93958345D01*
X98790725Y-93999268D01*
X98790718Y-93999271D01*
X98653799Y-94078320D01*
X98653791Y-94078326D01*
X98541991Y-94190126D01*
X98541989Y-94190129D01*
X98499822Y-94263164D01*
X98480116Y-94288844D01*
X96920358Y-95848603D01*
X96859035Y-95882088D01*
X96789343Y-95877104D01*
X96744996Y-95848603D01*
X96341522Y-95445129D01*
X96308037Y-95383806D01*
X96305203Y-95357448D01*
X96305203Y-95295648D01*
X96305203Y-95295646D01*
X96264280Y-95142919D01*
X96250136Y-95118421D01*
X96185227Y-95005993D01*
X96185221Y-95005985D01*
X96090935Y-94911699D01*
X96057450Y-94850376D01*
X96062434Y-94780684D01*
X96104306Y-94724751D01*
X96116605Y-94716638D01*
X96213806Y-94660520D01*
X96325610Y-94548716D01*
X96404667Y-94411784D01*
X96445590Y-94259057D01*
X96445590Y-94100943D01*
X96404667Y-93948216D01*
X96360250Y-93871282D01*
X96325614Y-93811290D01*
X96325608Y-93811282D01*
X96213807Y-93699481D01*
X96213799Y-93699475D01*
X96076880Y-93620426D01*
X96076876Y-93620424D01*
X96076874Y-93620423D01*
X95924147Y-93579500D01*
X95766033Y-93579500D01*
X95613306Y-93620423D01*
X95613299Y-93620426D01*
X95476380Y-93699475D01*
X95476372Y-93699481D01*
X95407673Y-93768181D01*
X95346350Y-93801666D01*
X95319992Y-93804500D01*
X94396899Y-93804500D01*
X94329860Y-93784815D01*
X94309218Y-93768181D01*
X93181045Y-92640008D01*
X93147560Y-92578685D01*
X93152544Y-92508993D01*
X93194416Y-92453060D01*
X93195841Y-92452008D01*
X93229501Y-92427553D01*
X93357553Y-92299501D01*
X93463996Y-92152994D01*
X93546211Y-91991639D01*
X93602171Y-91819409D01*
X93616765Y-91727259D01*
X93630500Y-91640551D01*
X93630500Y-91459448D01*
X93614019Y-91355397D01*
X93602171Y-91280591D01*
X93565924Y-91169031D01*
X93546212Y-91108363D01*
X93546211Y-91108360D01*
X93501426Y-91020466D01*
X93463996Y-90947006D01*
X93450396Y-90928287D01*
X93357558Y-90800505D01*
X93357554Y-90800500D01*
X93229499Y-90672445D01*
X93229494Y-90672441D01*
X93082997Y-90566006D01*
X93082996Y-90566005D01*
X93082994Y-90566004D01*
X93031300Y-90539664D01*
X92921639Y-90483788D01*
X92921636Y-90483787D01*
X92749410Y-90427829D01*
X92589321Y-90402473D01*
X92526186Y-90372544D01*
X92489255Y-90313232D01*
X92490253Y-90243370D01*
X92528863Y-90185137D01*
X92589321Y-90157527D01*
X92659425Y-90146422D01*
X92749409Y-90132171D01*
X92921639Y-90076211D01*
X93082994Y-89993996D01*
X93229501Y-89887553D01*
X93357553Y-89759501D01*
X93463996Y-89612994D01*
X93546211Y-89451639D01*
X93602171Y-89279409D01*
X93624764Y-89136762D01*
X93630500Y-89100551D01*
X93630500Y-88919448D01*
X93613001Y-88808969D01*
X93602171Y-88740591D01*
X93565924Y-88629031D01*
X93546212Y-88568363D01*
X93544346Y-88563858D01*
X93545919Y-88563206D01*
X93534383Y-88501795D01*
X93560657Y-88437054D01*
X93617761Y-88396794D01*
X93687567Y-88393798D01*
X93745446Y-88426483D01*
X95527046Y-90208083D01*
X95560531Y-90269406D01*
X95559140Y-90327856D01*
X95527500Y-90445941D01*
X95527500Y-90445943D01*
X95527500Y-90604057D01*
X95560041Y-90725500D01*
X95568423Y-90756783D01*
X95568426Y-90756790D01*
X95647475Y-90893709D01*
X95647479Y-90893714D01*
X95647480Y-90893716D01*
X95759284Y-91005520D01*
X95759286Y-91005521D01*
X95759290Y-91005524D01*
X95785171Y-91020466D01*
X95896216Y-91084577D01*
X96048943Y-91125500D01*
X96048945Y-91125500D01*
X96207055Y-91125500D01*
X96207057Y-91125500D01*
X96359784Y-91084577D01*
X96496716Y-91005520D01*
X96608520Y-90893716D01*
X96669843Y-90787499D01*
X96720409Y-90739285D01*
X96777230Y-90725500D01*
X96909809Y-90725500D01*
X96909811Y-90725500D01*
X97062538Y-90684577D01*
X97199470Y-90605520D01*
X97311274Y-90493716D01*
X97390331Y-90356784D01*
X97431254Y-90204057D01*
X97431254Y-90045943D01*
X97390331Y-89893216D01*
X97387062Y-89887554D01*
X97311278Y-89756290D01*
X97311272Y-89756282D01*
X97199471Y-89644481D01*
X97199470Y-89644480D01*
X97174816Y-89630246D01*
X97126601Y-89579680D01*
X97113379Y-89511072D01*
X97117041Y-89490773D01*
X97128609Y-89447603D01*
X97128609Y-89289489D01*
X97087686Y-89136762D01*
X97055024Y-89080189D01*
X97008633Y-88999836D01*
X97008627Y-88999828D01*
X96896826Y-88888027D01*
X96896818Y-88888021D01*
X96759899Y-88808972D01*
X96759895Y-88808970D01*
X96759893Y-88808969D01*
X96607166Y-88768046D01*
X96607165Y-88768046D01*
X96510009Y-88768046D01*
X96442970Y-88748361D01*
X96422328Y-88731727D01*
X95161819Y-87471218D01*
X95128334Y-87409895D01*
X95125500Y-87383537D01*
X95125500Y-84678107D01*
X100572336Y-84678107D01*
X100572336Y-84836220D01*
X100613259Y-84988947D01*
X100613262Y-84988954D01*
X100692311Y-85125873D01*
X100692317Y-85125881D01*
X100761017Y-85194581D01*
X100794502Y-85255904D01*
X100797336Y-85282262D01*
X100797336Y-88862271D01*
X100822926Y-88957774D01*
X100872361Y-89043398D01*
X100872362Y-89043399D01*
X102066327Y-90237364D01*
X102136240Y-90307277D01*
X102221864Y-90356712D01*
X102261343Y-90367291D01*
X102261344Y-90367291D01*
X102273182Y-90370463D01*
X102317366Y-90382302D01*
X102317367Y-90382302D01*
X102687102Y-90382302D01*
X102754141Y-90401987D01*
X102774783Y-90418621D01*
X102843484Y-90487322D01*
X102843486Y-90487323D01*
X102843490Y-90487326D01*
X102979766Y-90566004D01*
X102980416Y-90566379D01*
X103133143Y-90607302D01*
X103133145Y-90607302D01*
X103291255Y-90607302D01*
X103291257Y-90607302D01*
X103443984Y-90566379D01*
X103580916Y-90487322D01*
X103692720Y-90375518D01*
X103771777Y-90238586D01*
X103797843Y-90141304D01*
X103834208Y-90081645D01*
X103897055Y-90051116D01*
X103917618Y-90049399D01*
X103984055Y-90049399D01*
X103984057Y-90049399D01*
X104136784Y-90008476D01*
X104273716Y-89929419D01*
X104385520Y-89817615D01*
X104464577Y-89680683D01*
X104505500Y-89527956D01*
X104505500Y-89369842D01*
X104464577Y-89217115D01*
X104403050Y-89110546D01*
X104385524Y-89080189D01*
X104385518Y-89080181D01*
X104273717Y-88968380D01*
X104273709Y-88968374D01*
X104136790Y-88889325D01*
X104136786Y-88889323D01*
X104136784Y-88889322D01*
X103984057Y-88848399D01*
X103984056Y-88848399D01*
X103893990Y-88848399D01*
X103826951Y-88828714D01*
X103806309Y-88812080D01*
X102861619Y-87867390D01*
X102828134Y-87806067D01*
X102833118Y-87736375D01*
X102861614Y-87692033D01*
X103111831Y-87441816D01*
X103173153Y-87408334D01*
X103199511Y-87405500D01*
X103427432Y-87405500D01*
X103427435Y-87405500D01*
X103522938Y-87379910D01*
X103608562Y-87330475D01*
X103678475Y-87260562D01*
X103727910Y-87174938D01*
X103753500Y-87079435D01*
X103753500Y-85306793D01*
X103773185Y-85239754D01*
X103789819Y-85219112D01*
X103818439Y-85190492D01*
X103858520Y-85150411D01*
X103937577Y-85013479D01*
X103978500Y-84860752D01*
X103978500Y-84702638D01*
X103937577Y-84549911D01*
X103909583Y-84501423D01*
X103858524Y-84412985D01*
X103858518Y-84412977D01*
X103746717Y-84301176D01*
X103746709Y-84301170D01*
X103609790Y-84222121D01*
X103609786Y-84222119D01*
X103609784Y-84222118D01*
X103457057Y-84181195D01*
X103298943Y-84181195D01*
X103146216Y-84222118D01*
X103146209Y-84222121D01*
X103009290Y-84301170D01*
X103009282Y-84301176D01*
X102897481Y-84412977D01*
X102897475Y-84412985D01*
X102818426Y-84549904D01*
X102818423Y-84549911D01*
X102777500Y-84702638D01*
X102777500Y-84860751D01*
X102818423Y-85013478D01*
X102818426Y-85013485D01*
X102897475Y-85150404D01*
X102897481Y-85150412D01*
X102966181Y-85219112D01*
X102999666Y-85280435D01*
X103002500Y-85306793D01*
X103002500Y-86543455D01*
X102994655Y-86570170D01*
X102990038Y-86597633D01*
X102984946Y-86603233D01*
X102982815Y-86610494D01*
X102961773Y-86628726D01*
X102943041Y-86649334D01*
X102933056Y-86653610D01*
X102930011Y-86656249D01*
X102910597Y-86663229D01*
X102895428Y-86667294D01*
X102895426Y-86667294D01*
X102847675Y-86680089D01*
X102847674Y-86680089D01*
X102762047Y-86729527D01*
X102012886Y-87478689D01*
X101951563Y-87512174D01*
X101925205Y-87515008D01*
X101828047Y-87515008D01*
X101704429Y-87548131D01*
X101634579Y-87546468D01*
X101576717Y-87507305D01*
X101549213Y-87443077D01*
X101548336Y-87428356D01*
X101548336Y-85282262D01*
X101568021Y-85215223D01*
X101584655Y-85194581D01*
X101598142Y-85181094D01*
X101653356Y-85125880D01*
X101732413Y-84988948D01*
X101773336Y-84836221D01*
X101773336Y-84678107D01*
X101732413Y-84525380D01*
X101701824Y-84472398D01*
X101653360Y-84388454D01*
X101653354Y-84388446D01*
X101541553Y-84276645D01*
X101541545Y-84276639D01*
X101404626Y-84197590D01*
X101404622Y-84197588D01*
X101404620Y-84197587D01*
X101251893Y-84156664D01*
X101093779Y-84156664D01*
X100941052Y-84197587D01*
X100941045Y-84197590D01*
X100804126Y-84276639D01*
X100804118Y-84276645D01*
X100692317Y-84388446D01*
X100692311Y-84388454D01*
X100613262Y-84525373D01*
X100613259Y-84525380D01*
X100572336Y-84678107D01*
X95125500Y-84678107D01*
X95125500Y-80950943D01*
X96979500Y-80950943D01*
X96979500Y-81109057D01*
X96993010Y-81159475D01*
X97020423Y-81261783D01*
X97020426Y-81261790D01*
X97099475Y-81398709D01*
X97099479Y-81398714D01*
X97099480Y-81398716D01*
X97211284Y-81510520D01*
X97211286Y-81510521D01*
X97211290Y-81510524D01*
X97274724Y-81547147D01*
X97348216Y-81589577D01*
X97500943Y-81630500D01*
X97500945Y-81630500D01*
X97659055Y-81630500D01*
X97659057Y-81630500D01*
X97811784Y-81589577D01*
X97948716Y-81510520D01*
X98017417Y-81441819D01*
X98078740Y-81408334D01*
X98105098Y-81405500D01*
X103429550Y-81405500D01*
X103496589Y-81425185D01*
X103542344Y-81477989D01*
X103552288Y-81547147D01*
X103549573Y-81560382D01*
X103549500Y-81560943D01*
X103549500Y-81719057D01*
X103579882Y-81832442D01*
X103590423Y-81871783D01*
X103590426Y-81871790D01*
X103669475Y-82008709D01*
X103669479Y-82008714D01*
X103669480Y-82008716D01*
X103781284Y-82120520D01*
X103781286Y-82120521D01*
X103781290Y-82120524D01*
X103838776Y-82153713D01*
X103918216Y-82199577D01*
X104070943Y-82240500D01*
X104070945Y-82240500D01*
X104229055Y-82240500D01*
X104229057Y-82240500D01*
X104381784Y-82199577D01*
X104518716Y-82120520D01*
X104630520Y-82008716D01*
X104709577Y-81871784D01*
X104750500Y-81719057D01*
X104750500Y-81560943D01*
X104709577Y-81408216D01*
X104704088Y-81398709D01*
X104630524Y-81271290D01*
X104630518Y-81271282D01*
X104518717Y-81159481D01*
X104518709Y-81159475D01*
X104381790Y-81080426D01*
X104381785Y-81080423D01*
X104291662Y-81056275D01*
X104249509Y-81044980D01*
X104193924Y-81012887D01*
X103910563Y-80729526D01*
X103910562Y-80729525D01*
X103824938Y-80680090D01*
X103777186Y-80667295D01*
X103777184Y-80667294D01*
X103777182Y-80667293D01*
X103729436Y-80654500D01*
X103729435Y-80654500D01*
X98105098Y-80654500D01*
X98038059Y-80634815D01*
X98017417Y-80618181D01*
X97948717Y-80549481D01*
X97948709Y-80549475D01*
X97811790Y-80470426D01*
X97811786Y-80470424D01*
X97811784Y-80470423D01*
X97659057Y-80429500D01*
X97500943Y-80429500D01*
X97348216Y-80470423D01*
X97348209Y-80470426D01*
X97211290Y-80549475D01*
X97211282Y-80549481D01*
X97099481Y-80661282D01*
X97099475Y-80661290D01*
X97020426Y-80798209D01*
X97020423Y-80798216D01*
X96979500Y-80950943D01*
X95125500Y-80950943D01*
X95125500Y-69401504D01*
X96080000Y-69401504D01*
X96080000Y-69800000D01*
X96780000Y-69800000D01*
X96780000Y-70300000D01*
X96080000Y-70300000D01*
X96080000Y-70698495D01*
X96118427Y-70891681D01*
X96118430Y-70891693D01*
X96193807Y-71073671D01*
X96193814Y-71073684D01*
X96303248Y-71237462D01*
X96303251Y-71237466D01*
X96442533Y-71376748D01*
X96442537Y-71376751D01*
X96606315Y-71486185D01*
X96606328Y-71486192D01*
X96788308Y-71561569D01*
X96830000Y-71569862D01*
X96830000Y-70766988D01*
X96839940Y-70784205D01*
X96895795Y-70840060D01*
X96964204Y-70879556D01*
X97040504Y-70900000D01*
X97119496Y-70900000D01*
X97195796Y-70879556D01*
X97264205Y-70840060D01*
X97320060Y-70784205D01*
X97330000Y-70766988D01*
X97330000Y-71569862D01*
X97371690Y-71561569D01*
X97371692Y-71561569D01*
X97553671Y-71486192D01*
X97553684Y-71486185D01*
X97717462Y-71376751D01*
X97717466Y-71376748D01*
X97856748Y-71237466D01*
X97856751Y-71237462D01*
X97966185Y-71073684D01*
X97966192Y-71073671D01*
X98041569Y-70891693D01*
X98041572Y-70891681D01*
X98079999Y-70698495D01*
X98080000Y-70698492D01*
X98080000Y-70300000D01*
X97380000Y-70300000D01*
X97380000Y-69800000D01*
X97935536Y-69800000D01*
X98002575Y-69819685D01*
X98042923Y-69862000D01*
X98049482Y-69873361D01*
X98049484Y-69873364D01*
X98049485Y-69873365D01*
X98156635Y-69980515D01*
X98287865Y-70056281D01*
X98434234Y-70095500D01*
X98434236Y-70095500D01*
X98585764Y-70095500D01*
X98585766Y-70095500D01*
X98732135Y-70056281D01*
X98863365Y-69980515D01*
X98970515Y-69873365D01*
X99046281Y-69742135D01*
X99085500Y-69595766D01*
X99085500Y-69444234D01*
X103714500Y-69444234D01*
X103714500Y-69595765D01*
X103753719Y-69742136D01*
X103791090Y-69806863D01*
X103829485Y-69873365D01*
X103936635Y-69980515D01*
X104067865Y-70056281D01*
X104214234Y-70095500D01*
X104214236Y-70095500D01*
X104365764Y-70095500D01*
X104365766Y-70095500D01*
X104512135Y-70056281D01*
X104643365Y-69980515D01*
X104750515Y-69873365D01*
X104757077Y-69862000D01*
X104807644Y-69813784D01*
X104864464Y-69800000D01*
X105420000Y-69800000D01*
X105420000Y-70300000D01*
X104720000Y-70300000D01*
X104720000Y-70698495D01*
X104758427Y-70891681D01*
X104758430Y-70891693D01*
X104833807Y-71073671D01*
X104833814Y-71073684D01*
X104943248Y-71237462D01*
X104943251Y-71237466D01*
X105082533Y-71376748D01*
X105082537Y-71376751D01*
X105246315Y-71486185D01*
X105246328Y-71486192D01*
X105428308Y-71561569D01*
X105470000Y-71569862D01*
X105470000Y-70766988D01*
X105479940Y-70784205D01*
X105535795Y-70840060D01*
X105604204Y-70879556D01*
X105680504Y-70900000D01*
X105759496Y-70900000D01*
X105835796Y-70879556D01*
X105904205Y-70840060D01*
X105960060Y-70784205D01*
X105970000Y-70766988D01*
X105970000Y-71569862D01*
X106011690Y-71561569D01*
X106011692Y-71561569D01*
X106193671Y-71486192D01*
X106193684Y-71486185D01*
X106357462Y-71376751D01*
X106357466Y-71376748D01*
X106496748Y-71237466D01*
X106496751Y-71237462D01*
X106606185Y-71073684D01*
X106606192Y-71073671D01*
X106681569Y-70891693D01*
X106681572Y-70891681D01*
X106719999Y-70698495D01*
X106720000Y-70698492D01*
X106720000Y-70300000D01*
X106020000Y-70300000D01*
X106020000Y-69800000D01*
X106720000Y-69800000D01*
X106720000Y-69401508D01*
X106719999Y-69401504D01*
X106681572Y-69208318D01*
X106681569Y-69208306D01*
X106606192Y-69026328D01*
X106606185Y-69026315D01*
X106496751Y-68862537D01*
X106496748Y-68862533D01*
X106357466Y-68723251D01*
X106357462Y-68723248D01*
X106193684Y-68613814D01*
X106193671Y-68613807D01*
X106011691Y-68538429D01*
X106011683Y-68538427D01*
X105970000Y-68530135D01*
X105970000Y-69333011D01*
X105960060Y-69315795D01*
X105904205Y-69259940D01*
X105835796Y-69220444D01*
X105759496Y-69200000D01*
X105680504Y-69200000D01*
X105604204Y-69220444D01*
X105535795Y-69259940D01*
X105479940Y-69315795D01*
X105470000Y-69333011D01*
X105470000Y-68530136D01*
X105469999Y-68530135D01*
X105428316Y-68538427D01*
X105428308Y-68538429D01*
X105246328Y-68613807D01*
X105246315Y-68613814D01*
X105082537Y-68723248D01*
X105082533Y-68723251D01*
X104943248Y-68862536D01*
X104830427Y-69031387D01*
X104829003Y-69030435D01*
X104785742Y-69074451D01*
X104717600Y-69089892D01*
X104651927Y-69066041D01*
X104649907Y-69064306D01*
X104649811Y-69064432D01*
X104643367Y-69059487D01*
X104643365Y-69059485D01*
X104577750Y-69021602D01*
X104512136Y-68983719D01*
X104438950Y-68964109D01*
X104365766Y-68944500D01*
X104214234Y-68944500D01*
X104067863Y-68983719D01*
X103936635Y-69059485D01*
X103936632Y-69059487D01*
X103829487Y-69166632D01*
X103829485Y-69166635D01*
X103753719Y-69297863D01*
X103714500Y-69444234D01*
X99085500Y-69444234D01*
X99046281Y-69297865D01*
X99043470Y-69292997D01*
X99024385Y-69259940D01*
X98970515Y-69166635D01*
X98863365Y-69059485D01*
X98797750Y-69021602D01*
X98732136Y-68983719D01*
X98658950Y-68964109D01*
X98585766Y-68944500D01*
X98434234Y-68944500D01*
X98287863Y-68983719D01*
X98156635Y-69059485D01*
X98150189Y-69064432D01*
X98148099Y-69061709D01*
X98100217Y-69087466D01*
X98030558Y-69082043D01*
X97974888Y-69039821D01*
X97969299Y-69030976D01*
X97856751Y-68862537D01*
X97856748Y-68862533D01*
X97717466Y-68723251D01*
X97717462Y-68723248D01*
X97553684Y-68613814D01*
X97553671Y-68613807D01*
X97371691Y-68538429D01*
X97371683Y-68538427D01*
X97330000Y-68530135D01*
X97330000Y-69333011D01*
X97320060Y-69315795D01*
X97264205Y-69259940D01*
X97195796Y-69220444D01*
X97119496Y-69200000D01*
X97040504Y-69200000D01*
X96964204Y-69220444D01*
X96895795Y-69259940D01*
X96839940Y-69315795D01*
X96830000Y-69333011D01*
X96830000Y-68530136D01*
X96829999Y-68530135D01*
X96788316Y-68538427D01*
X96788308Y-68538429D01*
X96606328Y-68613807D01*
X96606315Y-68613814D01*
X96442537Y-68723248D01*
X96442533Y-68723251D01*
X96303251Y-68862533D01*
X96303248Y-68862537D01*
X96193814Y-69026315D01*
X96193807Y-69026328D01*
X96118430Y-69208306D01*
X96118427Y-69208318D01*
X96080000Y-69401504D01*
X95125500Y-69401504D01*
X95125500Y-68280565D01*
X95123875Y-68274500D01*
X95099911Y-68185063D01*
X95050475Y-68099437D01*
X94348906Y-67397868D01*
X93666818Y-66715780D01*
X93633333Y-66654457D01*
X93630499Y-66628099D01*
X93630499Y-65255143D01*
X93630499Y-65255136D01*
X93627585Y-65230009D01*
X93627584Y-65230006D01*
X93626782Y-65227059D01*
X93626849Y-65223662D01*
X93626511Y-65220742D01*
X93626908Y-65220695D01*
X93628173Y-65157203D01*
X93667110Y-65099189D01*
X93731231Y-65071435D01*
X93746431Y-65070500D01*
X96018928Y-65070500D01*
X96085967Y-65090185D01*
G37*
%TD.AperFunction*%
%TA.AperFunction,Conductor*%
G36*
X109750585Y-92612965D02*
G01*
X109763542Y-92618660D01*
X109778361Y-92626211D01*
X109778362Y-92626211D01*
X109778363Y-92626212D01*
X109861395Y-92653190D01*
X109950591Y-92682171D01*
X110023639Y-92693740D01*
X110110678Y-92707527D01*
X110173813Y-92737456D01*
X110210744Y-92796768D01*
X110209746Y-92866631D01*
X110171136Y-92924863D01*
X110110678Y-92952473D01*
X109950589Y-92977829D01*
X109778363Y-93033787D01*
X109778360Y-93033788D01*
X109617002Y-93116006D01*
X109470505Y-93222441D01*
X109470500Y-93222445D01*
X109342445Y-93350500D01*
X109342441Y-93350505D01*
X109236006Y-93497002D01*
X109153788Y-93658360D01*
X109153787Y-93658363D01*
X109097829Y-93830589D01*
X109069500Y-94009448D01*
X109069500Y-94190551D01*
X109097829Y-94369410D01*
X109153787Y-94541636D01*
X109153788Y-94541639D01*
X109189436Y-94611600D01*
X109234743Y-94700520D01*
X109236006Y-94702997D01*
X109342441Y-94849494D01*
X109342445Y-94849499D01*
X109470500Y-94977554D01*
X109470505Y-94977558D01*
X109555576Y-95039365D01*
X109617006Y-95083996D01*
X109685809Y-95119053D01*
X109748684Y-95151090D01*
X109799480Y-95199065D01*
X109816275Y-95266886D01*
X109793737Y-95333021D01*
X109739022Y-95376472D01*
X109730708Y-95379506D01*
X109701781Y-95388905D01*
X109512439Y-95485380D01*
X109458282Y-95524727D01*
X109458282Y-95524728D01*
X110090591Y-96157037D01*
X110027007Y-96174075D01*
X109912993Y-96239901D01*
X109819901Y-96332993D01*
X109754075Y-96447007D01*
X109737037Y-96510591D01*
X109104728Y-95878282D01*
X109104727Y-95878282D01*
X109065380Y-95932439D01*
X108968904Y-96121782D01*
X108903242Y-96323869D01*
X108903242Y-96323872D01*
X108870000Y-96533753D01*
X108870000Y-96746246D01*
X108903242Y-96956127D01*
X108903242Y-96956130D01*
X108968904Y-97158217D01*
X109065375Y-97347550D01*
X109104728Y-97401716D01*
X109737037Y-96769408D01*
X109754075Y-96832993D01*
X109819901Y-96947007D01*
X109912993Y-97040099D01*
X110027007Y-97105925D01*
X110090590Y-97122962D01*
X109458282Y-97755269D01*
X109458282Y-97755270D01*
X109512449Y-97794624D01*
X109701780Y-97891094D01*
X109730705Y-97900492D01*
X109788381Y-97939929D01*
X109815580Y-98004287D01*
X109803667Y-98073134D01*
X109756424Y-98124610D01*
X109748685Y-98128908D01*
X109617004Y-98196004D01*
X109470505Y-98302441D01*
X109470500Y-98302445D01*
X109342445Y-98430500D01*
X109342441Y-98430505D01*
X109236006Y-98577002D01*
X109153788Y-98738360D01*
X109153787Y-98738363D01*
X109097829Y-98910589D01*
X109069500Y-99089448D01*
X109069500Y-99270551D01*
X109097829Y-99449410D01*
X109153787Y-99621636D01*
X109153788Y-99621639D01*
X109196690Y-99705837D01*
X109230910Y-99772997D01*
X109236006Y-99782997D01*
X109342441Y-99929494D01*
X109342445Y-99929499D01*
X109470500Y-100057554D01*
X109470505Y-100057558D01*
X109598287Y-100150396D01*
X109617006Y-100163996D01*
X109722484Y-100217740D01*
X109778360Y-100246211D01*
X109778363Y-100246212D01*
X109864476Y-100274191D01*
X109950591Y-100302171D01*
X110023639Y-100313740D01*
X110110678Y-100327527D01*
X110173813Y-100357456D01*
X110210744Y-100416768D01*
X110209746Y-100486631D01*
X110171136Y-100544863D01*
X110110678Y-100572473D01*
X109950589Y-100597829D01*
X109778363Y-100653787D01*
X109778360Y-100653788D01*
X109617002Y-100736006D01*
X109470505Y-100842441D01*
X109470500Y-100842445D01*
X109342445Y-100970500D01*
X109342441Y-100970505D01*
X109236006Y-101117002D01*
X109153788Y-101278360D01*
X109153787Y-101278363D01*
X109097829Y-101450589D01*
X109069500Y-101629448D01*
X109069500Y-101810551D01*
X109097829Y-101989410D01*
X109153787Y-102161636D01*
X109153788Y-102161639D01*
X109203669Y-102259533D01*
X109230910Y-102312997D01*
X109236006Y-102322997D01*
X109342441Y-102469494D01*
X109342445Y-102469499D01*
X109470500Y-102597554D01*
X109470505Y-102597558D01*
X109509021Y-102625541D01*
X109617006Y-102703996D01*
X109705437Y-102749054D01*
X109778360Y-102786211D01*
X109778363Y-102786212D01*
X109864476Y-102814191D01*
X109950591Y-102842171D01*
X110023639Y-102853740D01*
X110110678Y-102867527D01*
X110173813Y-102897456D01*
X110210744Y-102956768D01*
X110209746Y-103026631D01*
X110171136Y-103084863D01*
X110110678Y-103112473D01*
X109950589Y-103137829D01*
X109778363Y-103193787D01*
X109778360Y-103193788D01*
X109617002Y-103276006D01*
X109470505Y-103382441D01*
X109470500Y-103382445D01*
X109342445Y-103510500D01*
X109342441Y-103510505D01*
X109236006Y-103657002D01*
X109153788Y-103818360D01*
X109153787Y-103818363D01*
X109097829Y-103990589D01*
X109069500Y-104169448D01*
X109069500Y-104350551D01*
X109097829Y-104529410D01*
X109153787Y-104701636D01*
X109153788Y-104701639D01*
X109203669Y-104799533D01*
X109230910Y-104852997D01*
X109236006Y-104862997D01*
X109342441Y-105009494D01*
X109342445Y-105009499D01*
X109470500Y-105137554D01*
X109470505Y-105137558D01*
X109598287Y-105230396D01*
X109617006Y-105243996D01*
X109722484Y-105297740D01*
X109778360Y-105326211D01*
X109778363Y-105326212D01*
X109864476Y-105354191D01*
X109950591Y-105382171D01*
X110023639Y-105393740D01*
X110110678Y-105407527D01*
X110173813Y-105437456D01*
X110210744Y-105496768D01*
X110209746Y-105566631D01*
X110171136Y-105624863D01*
X110110678Y-105652473D01*
X109950589Y-105677829D01*
X109778363Y-105733787D01*
X109778360Y-105733788D01*
X109617002Y-105816006D01*
X109470505Y-105922441D01*
X109470500Y-105922445D01*
X109342445Y-106050500D01*
X109342441Y-106050505D01*
X109236006Y-106197002D01*
X109153788Y-106358360D01*
X109153787Y-106358363D01*
X109097829Y-106530589D01*
X109069500Y-106709448D01*
X109069500Y-106890551D01*
X109097829Y-107069410D01*
X109153787Y-107241636D01*
X109153788Y-107241639D01*
X109203669Y-107339533D01*
X109230910Y-107392997D01*
X109236006Y-107402997D01*
X109342441Y-107549494D01*
X109342445Y-107549499D01*
X109470500Y-107677554D01*
X109470505Y-107677558D01*
X109598287Y-107770396D01*
X109617006Y-107783996D01*
X109718780Y-107835853D01*
X109748684Y-107851090D01*
X109799480Y-107899065D01*
X109816275Y-107966886D01*
X109793737Y-108033021D01*
X109739022Y-108076472D01*
X109730708Y-108079506D01*
X109701781Y-108088905D01*
X109512439Y-108185380D01*
X109458282Y-108224727D01*
X109458282Y-108224728D01*
X110090591Y-108857037D01*
X110027007Y-108874075D01*
X109912993Y-108939901D01*
X109819901Y-109032993D01*
X109754075Y-109147007D01*
X109737037Y-109210591D01*
X109104728Y-108578282D01*
X109104727Y-108578282D01*
X109065380Y-108632439D01*
X108968904Y-108821782D01*
X108903242Y-109023869D01*
X108903242Y-109023872D01*
X108870000Y-109233753D01*
X108870000Y-109446246D01*
X108903242Y-109656127D01*
X108903242Y-109656130D01*
X108968904Y-109858217D01*
X109065375Y-110047550D01*
X109104728Y-110101716D01*
X109737037Y-109469408D01*
X109754075Y-109532993D01*
X109819901Y-109647007D01*
X109912993Y-109740099D01*
X110027007Y-109805925D01*
X110090590Y-109822962D01*
X109458282Y-110455269D01*
X109458282Y-110455270D01*
X109512449Y-110494624D01*
X109701780Y-110591094D01*
X109730705Y-110600492D01*
X109788381Y-110639929D01*
X109815580Y-110704287D01*
X109803667Y-110773134D01*
X109756424Y-110824610D01*
X109748685Y-110828908D01*
X109617004Y-110896004D01*
X109470505Y-111002441D01*
X109470500Y-111002445D01*
X109342445Y-111130500D01*
X109342441Y-111130505D01*
X109236006Y-111277002D01*
X109153788Y-111438360D01*
X109153787Y-111438363D01*
X109097829Y-111610589D01*
X109069500Y-111789448D01*
X109069500Y-111970551D01*
X109097829Y-112149410D01*
X109153787Y-112321636D01*
X109153788Y-112321639D01*
X109203669Y-112419533D01*
X109230910Y-112472997D01*
X109236006Y-112482997D01*
X109342441Y-112629494D01*
X109342445Y-112629499D01*
X109470500Y-112757554D01*
X109470505Y-112757558D01*
X109598287Y-112850396D01*
X109617006Y-112863996D01*
X109722484Y-112917740D01*
X109778360Y-112946211D01*
X109778363Y-112946212D01*
X109864199Y-112974101D01*
X109950591Y-113002171D01*
X110023639Y-113013740D01*
X110110678Y-113027527D01*
X110173813Y-113057456D01*
X110210744Y-113116768D01*
X110209746Y-113186631D01*
X110171136Y-113244863D01*
X110110678Y-113272473D01*
X109950589Y-113297829D01*
X109778363Y-113353787D01*
X109778360Y-113353788D01*
X109617002Y-113436006D01*
X109470505Y-113542441D01*
X109470500Y-113542445D01*
X109342445Y-113670500D01*
X109342441Y-113670505D01*
X109236006Y-113817002D01*
X109153788Y-113978360D01*
X109153787Y-113978363D01*
X109097829Y-114150589D01*
X109069500Y-114329448D01*
X109069500Y-114510551D01*
X109097829Y-114689410D01*
X109153787Y-114861636D01*
X109153788Y-114861639D01*
X109203669Y-114959533D01*
X109230910Y-115012997D01*
X109236006Y-115022997D01*
X109342441Y-115169494D01*
X109342445Y-115169499D01*
X109470500Y-115297554D01*
X109470505Y-115297558D01*
X109508526Y-115325182D01*
X109551192Y-115380511D01*
X109557171Y-115450125D01*
X109524566Y-115511920D01*
X109463727Y-115546277D01*
X109435641Y-115549500D01*
X102073453Y-115549500D01*
X102006414Y-115529815D01*
X101960659Y-115477011D01*
X101950715Y-115407853D01*
X101979740Y-115344297D01*
X102017159Y-115315015D01*
X102037552Y-115304624D01*
X102091716Y-115265270D01*
X102091717Y-115265270D01*
X101459408Y-114632962D01*
X101522993Y-114615925D01*
X101637007Y-114550099D01*
X101730099Y-114457007D01*
X101795925Y-114342993D01*
X101812962Y-114279409D01*
X102445270Y-114911717D01*
X102445270Y-114911716D01*
X102484622Y-114857554D01*
X102581095Y-114668217D01*
X102590492Y-114639295D01*
X102629928Y-114581618D01*
X102694286Y-114554419D01*
X102763133Y-114566331D01*
X102814610Y-114613574D01*
X102818908Y-114621314D01*
X102886004Y-114752995D01*
X102992441Y-114899494D01*
X102992445Y-114899499D01*
X103120500Y-115027554D01*
X103120505Y-115027558D01*
X103248287Y-115120396D01*
X103267006Y-115133996D01*
X103343094Y-115172765D01*
X103428360Y-115216211D01*
X103428363Y-115216212D01*
X103514476Y-115244191D01*
X103600591Y-115272171D01*
X103683429Y-115285291D01*
X103779449Y-115300500D01*
X103779454Y-115300500D01*
X103960551Y-115300500D01*
X104047259Y-115286765D01*
X104139409Y-115272171D01*
X104311639Y-115216211D01*
X104472994Y-115133996D01*
X104619501Y-115027553D01*
X104747553Y-114899501D01*
X104853996Y-114752994D01*
X104936211Y-114591639D01*
X104992171Y-114419409D01*
X105008003Y-114319448D01*
X105020500Y-114240551D01*
X105020500Y-114059448D01*
X105001067Y-113936761D01*
X104992171Y-113880591D01*
X104936211Y-113708361D01*
X104936211Y-113708360D01*
X104897191Y-113631780D01*
X104853996Y-113547006D01*
X104840396Y-113528287D01*
X104747558Y-113400505D01*
X104747554Y-113400500D01*
X104619499Y-113272445D01*
X104619494Y-113272441D01*
X104472995Y-113166004D01*
X104313204Y-113084585D01*
X104262409Y-113036611D01*
X104245500Y-112974101D01*
X104245500Y-94903000D01*
X104244831Y-94900504D01*
X104243137Y-94894183D01*
X104239648Y-94881160D01*
X104240110Y-94861730D01*
X104235580Y-94842833D01*
X104240925Y-94827523D01*
X104241311Y-94811311D01*
X104252204Y-94795215D01*
X104258610Y-94776868D01*
X104274169Y-94762761D01*
X104280473Y-94753448D01*
X104283034Y-94751390D01*
X104289882Y-94746034D01*
X104368716Y-94700520D01*
X104442762Y-94626473D01*
X104448709Y-94621823D01*
X104474443Y-94611600D01*
X104498740Y-94598334D01*
X104511222Y-94596991D01*
X104513644Y-94596030D01*
X104515958Y-94596482D01*
X104525098Y-94595500D01*
X107559434Y-94595500D01*
X107559436Y-94595500D01*
X107605684Y-94583107D01*
X107615458Y-94580489D01*
X107628617Y-94576962D01*
X107654938Y-94569910D01*
X107740562Y-94520475D01*
X107810475Y-94450562D01*
X107810474Y-94450562D01*
X107869043Y-94391993D01*
X107869042Y-94391993D01*
X109619572Y-92641464D01*
X109680893Y-92607981D01*
X109750585Y-92612965D01*
G37*
%TD.AperFunction*%
%TA.AperFunction,Conductor*%
G36*
X99650811Y-97742740D02*
G01*
X99706744Y-97784612D01*
X99731161Y-97850076D01*
X99731477Y-97858922D01*
X99731477Y-101656412D01*
X99757067Y-101751915D01*
X99790920Y-101810551D01*
X99806503Y-101837540D01*
X100533181Y-102564218D01*
X100566666Y-102625541D01*
X100569500Y-102651899D01*
X100569500Y-102749057D01*
X100609264Y-102897456D01*
X100610423Y-102901783D01*
X100610426Y-102901790D01*
X100689475Y-103038709D01*
X100689479Y-103038714D01*
X100689480Y-103038716D01*
X100801284Y-103150520D01*
X100928747Y-103224110D01*
X100976962Y-103274676D01*
X100990186Y-103343283D01*
X100964218Y-103408148D01*
X100954428Y-103419178D01*
X100540426Y-103833181D01*
X100479103Y-103866666D01*
X100452745Y-103869500D01*
X100390943Y-103869500D01*
X100238216Y-103910423D01*
X100238209Y-103910426D01*
X100101290Y-103989475D01*
X100101282Y-103989481D01*
X99989481Y-104101282D01*
X99989475Y-104101290D01*
X99910426Y-104238209D01*
X99910423Y-104238216D01*
X99869500Y-104390943D01*
X99869500Y-104549057D01*
X99910384Y-104701636D01*
X99910423Y-104701783D01*
X99910426Y-104701790D01*
X99989475Y-104838709D01*
X99989479Y-104838714D01*
X99989480Y-104838716D01*
X100101284Y-104950520D01*
X100101286Y-104950521D01*
X100101290Y-104950524D01*
X100203443Y-105009501D01*
X100238216Y-105029577D01*
X100390943Y-105070500D01*
X100390945Y-105070500D01*
X100549055Y-105070500D01*
X100549057Y-105070500D01*
X100701784Y-105029577D01*
X100838716Y-104950520D01*
X100950520Y-104838716D01*
X101029577Y-104701784D01*
X101070500Y-104549057D01*
X101070500Y-104487254D01*
X101090185Y-104420215D01*
X101106819Y-104399573D01*
X101599573Y-103906819D01*
X101626500Y-103892115D01*
X101652319Y-103875523D01*
X101658519Y-103874631D01*
X101660896Y-103873334D01*
X101687254Y-103870500D01*
X101769902Y-103870500D01*
X101836941Y-103890185D01*
X101857583Y-103906819D01*
X101901284Y-103950520D01*
X101901286Y-103950521D01*
X101901290Y-103950524D01*
X102038209Y-104029573D01*
X102038216Y-104029577D01*
X102190943Y-104070500D01*
X102190945Y-104070500D01*
X102349055Y-104070500D01*
X102349057Y-104070500D01*
X102501784Y-104029577D01*
X102638716Y-103950520D01*
X102750520Y-103838716D01*
X102829577Y-103701784D01*
X102870500Y-103549057D01*
X102870500Y-103390943D01*
X102829577Y-103238216D01*
X102798154Y-103183789D01*
X102750524Y-103101290D01*
X102750518Y-103101282D01*
X102638717Y-102989481D01*
X102638709Y-102989475D01*
X102501790Y-102910426D01*
X102501786Y-102910424D01*
X102501784Y-102910423D01*
X102349057Y-102869500D01*
X102190943Y-102869500D01*
X102038216Y-102910423D01*
X102038215Y-102910423D01*
X101929608Y-102973127D01*
X101861708Y-102989599D01*
X101795681Y-102966746D01*
X101752491Y-102911824D01*
X101745850Y-102842271D01*
X101747829Y-102833664D01*
X101770500Y-102749057D01*
X101770500Y-102590943D01*
X101729577Y-102438216D01*
X101663056Y-102322997D01*
X101650524Y-102301290D01*
X101650518Y-102301282D01*
X101538717Y-102189481D01*
X101538709Y-102189475D01*
X101401790Y-102110426D01*
X101401786Y-102110424D01*
X101401784Y-102110423D01*
X101249057Y-102069500D01*
X101249056Y-102069500D01*
X101151899Y-102069500D01*
X101084860Y-102049815D01*
X101064218Y-102033181D01*
X100518796Y-101487759D01*
X100485311Y-101426436D01*
X100482477Y-101400078D01*
X100482477Y-99772876D01*
X100502162Y-99705837D01*
X100554966Y-99660082D01*
X100624124Y-99650138D01*
X100687680Y-99679163D01*
X100694158Y-99685195D01*
X102463181Y-101454218D01*
X102496666Y-101515541D01*
X102499500Y-101541899D01*
X102499500Y-101639057D01*
X102529741Y-101751916D01*
X102540423Y-101791783D01*
X102540426Y-101791790D01*
X102619475Y-101928709D01*
X102619479Y-101928714D01*
X102619480Y-101928716D01*
X102731284Y-102040520D01*
X102731286Y-102040521D01*
X102731290Y-102040524D01*
X102868022Y-102119465D01*
X102868216Y-102119577D01*
X103020943Y-102160500D01*
X103020945Y-102160500D01*
X103179055Y-102160500D01*
X103179057Y-102160500D01*
X103331784Y-102119577D01*
X103331785Y-102119576D01*
X103338407Y-102117802D01*
X103408256Y-102119465D01*
X103466119Y-102158627D01*
X103493623Y-102222856D01*
X103494500Y-102237577D01*
X103494500Y-112974101D01*
X103474815Y-113041140D01*
X103426796Y-113084585D01*
X103267004Y-113166004D01*
X103120505Y-113272441D01*
X103120500Y-113272445D01*
X102992445Y-113400500D01*
X102992441Y-113400505D01*
X102886004Y-113547004D01*
X102818908Y-113678685D01*
X102770933Y-113729480D01*
X102703112Y-113746275D01*
X102636977Y-113723737D01*
X102593527Y-113669021D01*
X102590492Y-113660705D01*
X102581094Y-113631780D01*
X102484624Y-113442449D01*
X102445270Y-113388282D01*
X102445269Y-113388282D01*
X101812962Y-114020590D01*
X101795925Y-113957007D01*
X101730099Y-113842993D01*
X101637007Y-113749901D01*
X101522993Y-113684075D01*
X101459409Y-113667037D01*
X102091716Y-113034728D01*
X102037550Y-112995375D01*
X101848217Y-112898904D01*
X101646129Y-112833242D01*
X101436246Y-112800000D01*
X101223754Y-112800000D01*
X101013872Y-112833242D01*
X101013869Y-112833242D01*
X100811782Y-112898904D01*
X100622439Y-112995380D01*
X100568282Y-113034727D01*
X100568282Y-113034728D01*
X101200591Y-113667037D01*
X101137007Y-113684075D01*
X101022993Y-113749901D01*
X100929901Y-113842993D01*
X100864075Y-113957007D01*
X100847037Y-114020591D01*
X100214728Y-113388282D01*
X100214727Y-113388282D01*
X100175380Y-113442440D01*
X100175377Y-113442445D01*
X100174981Y-113443223D01*
X100174752Y-113443464D01*
X100172838Y-113446590D01*
X100172180Y-113446187D01*
X100127004Y-113494017D01*
X100059183Y-113510809D01*
X99993049Y-113488268D01*
X99949600Y-113433551D01*
X99940499Y-113386923D01*
X99940499Y-113255143D01*
X99940499Y-113255136D01*
X99938148Y-113234863D01*
X99937586Y-113230012D01*
X99937585Y-113230011D01*
X99937585Y-113230009D01*
X99892206Y-113127235D01*
X99812765Y-113047794D01*
X99812000Y-113047456D01*
X99709992Y-113002415D01*
X99684868Y-112999500D01*
X99684865Y-112999500D01*
X99289500Y-112999500D01*
X99222461Y-112979815D01*
X99176706Y-112927011D01*
X99165500Y-112875500D01*
X99165500Y-98336957D01*
X99164500Y-98321691D01*
X99164500Y-98115571D01*
X99184185Y-98048532D01*
X99200813Y-98027895D01*
X99274479Y-97954229D01*
X99326202Y-97924369D01*
X99326166Y-97924282D01*
X99326830Y-97924006D01*
X99330069Y-97922136D01*
X99333678Y-97921170D01*
X99419302Y-97871735D01*
X99489215Y-97801822D01*
X99519796Y-97771241D01*
X99581119Y-97737756D01*
X99650811Y-97742740D01*
G37*
%TD.AperFunction*%
%TA.AperFunction,Conductor*%
G36*
X92014075Y-109522993D02*
G01*
X92079901Y-109637007D01*
X92172993Y-109730099D01*
X92287007Y-109795925D01*
X92350590Y-109812962D01*
X91718282Y-110445269D01*
X91718282Y-110445270D01*
X91772449Y-110484624D01*
X91961780Y-110581094D01*
X91990705Y-110590492D01*
X92048381Y-110629929D01*
X92075580Y-110694287D01*
X92063667Y-110763134D01*
X92016424Y-110814610D01*
X92008685Y-110818908D01*
X91877004Y-110886004D01*
X91730505Y-110992441D01*
X91730500Y-110992445D01*
X91602445Y-111120500D01*
X91602441Y-111120505D01*
X91496006Y-111267002D01*
X91413788Y-111428360D01*
X91413787Y-111428363D01*
X91402431Y-111463316D01*
X91362993Y-111520992D01*
X91298635Y-111548190D01*
X91229788Y-111536275D01*
X91178313Y-111489031D01*
X91160500Y-111424998D01*
X91160500Y-110192253D01*
X91180185Y-110125214D01*
X91232989Y-110079459D01*
X91302147Y-110069515D01*
X91347853Y-110090388D01*
X91364728Y-110091716D01*
X91997037Y-109459408D01*
X92014075Y-109522993D01*
G37*
%TD.AperFunction*%
%TA.AperFunction,Conductor*%
G36*
X111335269Y-110101716D02*
G01*
X111365770Y-110099316D01*
X111434148Y-110113680D01*
X111483905Y-110162731D01*
X111499500Y-110222934D01*
X111499500Y-111340466D01*
X111479815Y-111407505D01*
X111427011Y-111453260D01*
X111357853Y-111463204D01*
X111294297Y-111434179D01*
X111265016Y-111396761D01*
X111203997Y-111277007D01*
X111203996Y-111277006D01*
X111097558Y-111130505D01*
X111097554Y-111130500D01*
X110969499Y-111002445D01*
X110969494Y-111002441D01*
X110822995Y-110896004D01*
X110691314Y-110828908D01*
X110640519Y-110780934D01*
X110623724Y-110713113D01*
X110646262Y-110646978D01*
X110700977Y-110603527D01*
X110709295Y-110600492D01*
X110738217Y-110591095D01*
X110927554Y-110494622D01*
X110981716Y-110455270D01*
X110981717Y-110455270D01*
X110349408Y-109822962D01*
X110412993Y-109805925D01*
X110527007Y-109740099D01*
X110620099Y-109647007D01*
X110685925Y-109532993D01*
X110702962Y-109469408D01*
X111335269Y-110101716D01*
G37*
%TD.AperFunction*%
%TA.AperFunction,Conductor*%
G36*
X111446946Y-107238185D02*
G01*
X111490397Y-107292900D01*
X111499500Y-107339533D01*
X111499500Y-108457065D01*
X111479815Y-108524104D01*
X111427011Y-108569859D01*
X111365770Y-108580683D01*
X111335269Y-108578282D01*
X110702962Y-109210590D01*
X110685925Y-109147007D01*
X110620099Y-109032993D01*
X110527007Y-108939901D01*
X110412993Y-108874075D01*
X110349409Y-108857037D01*
X110981716Y-108224728D01*
X110927550Y-108185375D01*
X110738217Y-108088904D01*
X110709292Y-108079506D01*
X110651616Y-108040068D01*
X110624418Y-107975710D01*
X110636333Y-107906863D01*
X110683577Y-107855388D01*
X110691315Y-107851090D01*
X110710941Y-107841090D01*
X110822994Y-107783996D01*
X110969501Y-107677553D01*
X111097553Y-107549501D01*
X111203996Y-107402994D01*
X111265015Y-107283237D01*
X111312990Y-107232442D01*
X111380811Y-107215647D01*
X111446946Y-107238185D01*
G37*
%TD.AperFunction*%
%TA.AperFunction,Conductor*%
G36*
X91365703Y-107141288D02*
G01*
X91402431Y-107196684D01*
X91413786Y-107231633D01*
X91413788Y-107231639D01*
X91496006Y-107392997D01*
X91602441Y-107539494D01*
X91602445Y-107539499D01*
X91730500Y-107667554D01*
X91730505Y-107667558D01*
X91858287Y-107760396D01*
X91877006Y-107773996D01*
X91978780Y-107825853D01*
X92008684Y-107841090D01*
X92059480Y-107889065D01*
X92076275Y-107956886D01*
X92053737Y-108023021D01*
X91999022Y-108066472D01*
X91990708Y-108069506D01*
X91961781Y-108078905D01*
X91772439Y-108175380D01*
X91718282Y-108214727D01*
X91718282Y-108214728D01*
X92350591Y-108847037D01*
X92287007Y-108864075D01*
X92172993Y-108929901D01*
X92079901Y-109022993D01*
X92014075Y-109137007D01*
X91997037Y-109200591D01*
X91364728Y-108568282D01*
X91347165Y-108569664D01*
X91329490Y-108583295D01*
X91259876Y-108589275D01*
X91198081Y-108556669D01*
X91163723Y-108495831D01*
X91160500Y-108467744D01*
X91160500Y-107235001D01*
X91180185Y-107167962D01*
X91232989Y-107122207D01*
X91302147Y-107112263D01*
X91365703Y-107141288D01*
G37*
%TD.AperFunction*%
%TA.AperFunction,Conductor*%
G36*
X92014075Y-96822993D02*
G01*
X92079901Y-96937007D01*
X92172993Y-97030099D01*
X92287007Y-97095925D01*
X92350590Y-97112962D01*
X91718282Y-97745269D01*
X91718282Y-97745270D01*
X91772449Y-97784624D01*
X91961780Y-97881094D01*
X91990705Y-97890492D01*
X92048381Y-97929929D01*
X92075580Y-97994287D01*
X92063667Y-98063134D01*
X92016424Y-98114610D01*
X92008685Y-98118908D01*
X91877004Y-98186004D01*
X91730505Y-98292441D01*
X91730500Y-98292445D01*
X91602445Y-98420500D01*
X91602441Y-98420505D01*
X91496006Y-98567002D01*
X91413788Y-98728360D01*
X91413787Y-98728363D01*
X91402431Y-98763316D01*
X91362993Y-98820992D01*
X91298635Y-98848190D01*
X91229788Y-98836275D01*
X91178313Y-98789031D01*
X91160500Y-98724998D01*
X91160500Y-97492253D01*
X91180185Y-97425214D01*
X91232989Y-97379459D01*
X91302147Y-97369515D01*
X91347853Y-97390388D01*
X91364728Y-97391716D01*
X91997037Y-96759408D01*
X92014075Y-96822993D01*
G37*
%TD.AperFunction*%
%TA.AperFunction,Conductor*%
G36*
X111335269Y-97401716D02*
G01*
X111365770Y-97399316D01*
X111434148Y-97413680D01*
X111483905Y-97462731D01*
X111499500Y-97522934D01*
X111499500Y-98640466D01*
X111479815Y-98707505D01*
X111427011Y-98753260D01*
X111357853Y-98763204D01*
X111294297Y-98734179D01*
X111265016Y-98696761D01*
X111203997Y-98577007D01*
X111203996Y-98577006D01*
X111097558Y-98430505D01*
X111097554Y-98430500D01*
X110969499Y-98302445D01*
X110969494Y-98302441D01*
X110822995Y-98196004D01*
X110691314Y-98128908D01*
X110640519Y-98080934D01*
X110623724Y-98013113D01*
X110646262Y-97946978D01*
X110700977Y-97903527D01*
X110709295Y-97900492D01*
X110738217Y-97891095D01*
X110927554Y-97794622D01*
X110981716Y-97755270D01*
X110981717Y-97755270D01*
X110349408Y-97122962D01*
X110412993Y-97105925D01*
X110527007Y-97040099D01*
X110620099Y-96947007D01*
X110685925Y-96832993D01*
X110702962Y-96769408D01*
X111335269Y-97401716D01*
G37*
%TD.AperFunction*%
%TA.AperFunction,Conductor*%
G36*
X111446946Y-94538185D02*
G01*
X111490397Y-94592900D01*
X111499500Y-94639533D01*
X111499500Y-95757065D01*
X111479815Y-95824104D01*
X111427011Y-95869859D01*
X111365770Y-95880683D01*
X111335269Y-95878282D01*
X110702962Y-96510590D01*
X110685925Y-96447007D01*
X110620099Y-96332993D01*
X110527007Y-96239901D01*
X110412993Y-96174075D01*
X110349409Y-96157037D01*
X110981716Y-95524728D01*
X110927550Y-95485375D01*
X110738217Y-95388904D01*
X110709292Y-95379506D01*
X110651616Y-95340068D01*
X110624418Y-95275710D01*
X110636333Y-95206863D01*
X110683577Y-95155388D01*
X110691315Y-95151090D01*
X110702506Y-95145388D01*
X110822994Y-95083996D01*
X110969501Y-94977553D01*
X111097553Y-94849501D01*
X111203996Y-94702994D01*
X111265015Y-94583237D01*
X111312990Y-94532442D01*
X111380811Y-94515647D01*
X111446946Y-94538185D01*
G37*
%TD.AperFunction*%
%TA.AperFunction,Conductor*%
G36*
X91365703Y-94441288D02*
G01*
X91402431Y-94496684D01*
X91413786Y-94531633D01*
X91413788Y-94531639D01*
X91447772Y-94598334D01*
X91495735Y-94692467D01*
X91496006Y-94692997D01*
X91602441Y-94839494D01*
X91602445Y-94839499D01*
X91730500Y-94967554D01*
X91730505Y-94967558D01*
X91829340Y-95039365D01*
X91877006Y-95073996D01*
X91965435Y-95119053D01*
X92008684Y-95141090D01*
X92059480Y-95189065D01*
X92076275Y-95256886D01*
X92053737Y-95323021D01*
X91999022Y-95366472D01*
X91990708Y-95369506D01*
X91961781Y-95378905D01*
X91772439Y-95475380D01*
X91718282Y-95514727D01*
X91718282Y-95514728D01*
X92350591Y-96147037D01*
X92287007Y-96164075D01*
X92172993Y-96229901D01*
X92079901Y-96322993D01*
X92014075Y-96437007D01*
X91997037Y-96500591D01*
X91364728Y-95868282D01*
X91347165Y-95869664D01*
X91329490Y-95883295D01*
X91259876Y-95889275D01*
X91198081Y-95856669D01*
X91163723Y-95795831D01*
X91160500Y-95767744D01*
X91160500Y-94535001D01*
X91180185Y-94467962D01*
X91232989Y-94422207D01*
X91302147Y-94412263D01*
X91365703Y-94441288D01*
G37*
%TD.AperFunction*%
%TA.AperFunction,Conductor*%
G36*
X93586920Y-87144788D02*
G01*
X93621277Y-87205627D01*
X93624500Y-87233713D01*
X93624500Y-88100564D01*
X93624500Y-88199436D01*
X93627670Y-88211266D01*
X93633234Y-88232030D01*
X93631571Y-88301880D01*
X93592409Y-88359743D01*
X93528180Y-88387247D01*
X93459278Y-88375661D01*
X93413140Y-88337009D01*
X93364822Y-88270505D01*
X93357553Y-88260499D01*
X93229501Y-88132447D01*
X93229499Y-88132445D01*
X93229494Y-88132441D01*
X93082997Y-88026006D01*
X93082996Y-88026005D01*
X93082994Y-88026004D01*
X93030844Y-87999432D01*
X92921639Y-87943788D01*
X92921636Y-87943787D01*
X92749410Y-87887829D01*
X92589321Y-87862473D01*
X92526186Y-87832544D01*
X92489255Y-87773232D01*
X92490253Y-87703370D01*
X92528863Y-87645137D01*
X92589321Y-87617527D01*
X92659425Y-87606422D01*
X92749409Y-87592171D01*
X92921639Y-87536211D01*
X93082994Y-87453996D01*
X93229501Y-87347553D01*
X93357553Y-87219501D01*
X93357555Y-87219497D01*
X93357558Y-87219495D01*
X93400182Y-87160828D01*
X93455511Y-87118162D01*
X93525125Y-87112183D01*
X93586920Y-87144788D01*
G37*
%TD.AperFunction*%
%TA.AperFunction,Conductor*%
G36*
X92014075Y-84122993D02*
G01*
X92079901Y-84237007D01*
X92172993Y-84330099D01*
X92287007Y-84395925D01*
X92350590Y-84412962D01*
X91718282Y-85045269D01*
X91718282Y-85045270D01*
X91772449Y-85084624D01*
X91961780Y-85181094D01*
X91990705Y-85190492D01*
X92048381Y-85229929D01*
X92075580Y-85294287D01*
X92063667Y-85363134D01*
X92016424Y-85414610D01*
X92008685Y-85418908D01*
X91877004Y-85486004D01*
X91730505Y-85592441D01*
X91730500Y-85592445D01*
X91602445Y-85720500D01*
X91602441Y-85720505D01*
X91496006Y-85867002D01*
X91413788Y-86028360D01*
X91413787Y-86028363D01*
X91402431Y-86063316D01*
X91362993Y-86120992D01*
X91298635Y-86148190D01*
X91229788Y-86136275D01*
X91178313Y-86089031D01*
X91160500Y-86024998D01*
X91160500Y-84792253D01*
X91180185Y-84725214D01*
X91232989Y-84679459D01*
X91302147Y-84669515D01*
X91347853Y-84690388D01*
X91364728Y-84691716D01*
X91997037Y-84059408D01*
X92014075Y-84122993D01*
G37*
%TD.AperFunction*%
%TA.AperFunction,Conductor*%
G36*
X111335269Y-84701716D02*
G01*
X111365770Y-84699316D01*
X111434148Y-84713680D01*
X111483905Y-84762731D01*
X111499500Y-84822934D01*
X111499500Y-85940466D01*
X111479815Y-86007505D01*
X111427011Y-86053260D01*
X111357853Y-86063204D01*
X111294297Y-86034179D01*
X111265016Y-85996761D01*
X111203997Y-85877007D01*
X111203996Y-85877006D01*
X111097558Y-85730505D01*
X111097554Y-85730500D01*
X110969499Y-85602445D01*
X110969494Y-85602441D01*
X110822995Y-85496004D01*
X110691314Y-85428908D01*
X110640519Y-85380934D01*
X110623724Y-85313113D01*
X110646262Y-85246978D01*
X110700977Y-85203527D01*
X110709295Y-85200492D01*
X110738217Y-85191095D01*
X110927554Y-85094622D01*
X110981716Y-85055270D01*
X110981717Y-85055270D01*
X110349408Y-84422962D01*
X110412993Y-84405925D01*
X110527007Y-84340099D01*
X110620099Y-84247007D01*
X110685925Y-84132993D01*
X110702962Y-84069408D01*
X111335269Y-84701716D01*
G37*
%TD.AperFunction*%
%TA.AperFunction,Conductor*%
G36*
X93588181Y-84684628D02*
G01*
X93621666Y-84745951D01*
X93624500Y-84772309D01*
X93624500Y-85706286D01*
X93604815Y-85773325D01*
X93552011Y-85819080D01*
X93482853Y-85829024D01*
X93419297Y-85799999D01*
X93400182Y-85779172D01*
X93357554Y-85720500D01*
X93229499Y-85592445D01*
X93229494Y-85592441D01*
X93082995Y-85486004D01*
X92951314Y-85418908D01*
X92900519Y-85370934D01*
X92883724Y-85303113D01*
X92906262Y-85236978D01*
X92960977Y-85193527D01*
X92969295Y-85190492D01*
X92998217Y-85181095D01*
X93187554Y-85084622D01*
X93241716Y-85045270D01*
X93241717Y-85045270D01*
X92609408Y-84412962D01*
X92672993Y-84395925D01*
X92787007Y-84330099D01*
X92880099Y-84237007D01*
X92945925Y-84122993D01*
X92962962Y-84059409D01*
X93588181Y-84684628D01*
G37*
%TD.AperFunction*%
%TA.AperFunction,Conductor*%
G36*
X108924220Y-76564535D02*
G01*
X108928734Y-76564320D01*
X108961492Y-76577435D01*
X108992250Y-76595192D01*
X109035062Y-76619910D01*
X109049636Y-76623815D01*
X109109297Y-76660180D01*
X109135474Y-76705271D01*
X109153790Y-76761642D01*
X109174985Y-76803238D01*
X109230910Y-76912997D01*
X109236006Y-76922997D01*
X109342441Y-77069494D01*
X109342445Y-77069499D01*
X109470500Y-77197554D01*
X109470505Y-77197558D01*
X109598287Y-77290396D01*
X109617006Y-77303996D01*
X109722484Y-77357740D01*
X109778360Y-77386211D01*
X109778363Y-77386212D01*
X109864476Y-77414191D01*
X109950591Y-77442171D01*
X110023639Y-77453740D01*
X110110678Y-77467527D01*
X110173813Y-77497456D01*
X110210744Y-77556768D01*
X110209746Y-77626631D01*
X110171136Y-77684863D01*
X110110678Y-77712473D01*
X109950589Y-77737829D01*
X109778363Y-77793787D01*
X109778360Y-77793788D01*
X109617002Y-77876006D01*
X109470505Y-77982441D01*
X109470500Y-77982445D01*
X109342445Y-78110500D01*
X109342441Y-78110505D01*
X109236006Y-78257002D01*
X109153788Y-78418360D01*
X109153787Y-78418363D01*
X109097829Y-78590589D01*
X109069500Y-78769448D01*
X109069500Y-78950551D01*
X109097829Y-79129410D01*
X109153787Y-79301636D01*
X109153788Y-79301639D01*
X109203669Y-79399533D01*
X109230910Y-79452997D01*
X109236006Y-79462997D01*
X109342441Y-79609494D01*
X109342445Y-79609499D01*
X109470500Y-79737554D01*
X109470505Y-79737558D01*
X109598287Y-79830396D01*
X109617006Y-79843996D01*
X109722484Y-79897740D01*
X109778360Y-79926211D01*
X109778363Y-79926212D01*
X109864476Y-79954191D01*
X109950591Y-79982171D01*
X110023639Y-79993740D01*
X110110678Y-80007527D01*
X110173813Y-80037456D01*
X110210744Y-80096768D01*
X110209746Y-80166631D01*
X110171136Y-80224863D01*
X110110678Y-80252473D01*
X109950589Y-80277829D01*
X109778363Y-80333787D01*
X109778360Y-80333788D01*
X109617002Y-80416006D01*
X109470505Y-80522441D01*
X109470500Y-80522445D01*
X109342445Y-80650500D01*
X109342441Y-80650505D01*
X109236006Y-80797002D01*
X109153788Y-80958360D01*
X109153787Y-80958363D01*
X109097829Y-81130589D01*
X109069500Y-81309448D01*
X109069500Y-81490551D01*
X109097829Y-81669410D01*
X109153787Y-81841636D01*
X109153788Y-81841639D01*
X109203669Y-81939533D01*
X109230910Y-81992997D01*
X109236006Y-82002997D01*
X109342441Y-82149494D01*
X109342445Y-82149499D01*
X109470500Y-82277554D01*
X109470505Y-82277558D01*
X109598287Y-82370396D01*
X109617006Y-82383996D01*
X109718780Y-82435853D01*
X109748684Y-82451090D01*
X109799480Y-82499065D01*
X109816275Y-82566886D01*
X109793737Y-82633021D01*
X109739022Y-82676472D01*
X109730708Y-82679506D01*
X109701781Y-82688905D01*
X109512439Y-82785380D01*
X109458282Y-82824727D01*
X109458282Y-82824728D01*
X110090591Y-83457037D01*
X110027007Y-83474075D01*
X109912993Y-83539901D01*
X109819901Y-83632993D01*
X109754075Y-83747007D01*
X109737037Y-83810591D01*
X109104728Y-83178282D01*
X109104727Y-83178282D01*
X109065380Y-83232440D01*
X109065378Y-83232443D01*
X109009984Y-83341159D01*
X108962010Y-83391954D01*
X108894188Y-83408749D01*
X108828054Y-83386211D01*
X108784603Y-83331496D01*
X108775500Y-83284863D01*
X108775500Y-76684825D01*
X108777210Y-76679000D01*
X108776061Y-76673038D01*
X108786940Y-76645863D01*
X108795185Y-76617786D01*
X108799773Y-76613810D01*
X108802030Y-76608173D01*
X108825873Y-76591194D01*
X108847989Y-76572031D01*
X108853998Y-76571166D01*
X108858944Y-76567645D01*
X108888179Y-76566252D01*
X108917147Y-76562087D01*
X108924220Y-76564535D01*
G37*
%TD.AperFunction*%
%TA.AperFunction,Conductor*%
G36*
X111446946Y-81838185D02*
G01*
X111490397Y-81892900D01*
X111499500Y-81939533D01*
X111499500Y-83057065D01*
X111479815Y-83124104D01*
X111427011Y-83169859D01*
X111365770Y-83180683D01*
X111335269Y-83178282D01*
X110702962Y-83810590D01*
X110685925Y-83747007D01*
X110620099Y-83632993D01*
X110527007Y-83539901D01*
X110412993Y-83474075D01*
X110349409Y-83457037D01*
X110981716Y-82824728D01*
X110927550Y-82785375D01*
X110738217Y-82688904D01*
X110709292Y-82679506D01*
X110651616Y-82640068D01*
X110624418Y-82575710D01*
X110636333Y-82506863D01*
X110683577Y-82455388D01*
X110691315Y-82451090D01*
X110710941Y-82441090D01*
X110822994Y-82383996D01*
X110969501Y-82277553D01*
X111097553Y-82149501D01*
X111203996Y-82002994D01*
X111265015Y-81883237D01*
X111312990Y-81832442D01*
X111380811Y-81815647D01*
X111446946Y-81838185D01*
G37*
%TD.AperFunction*%
%TA.AperFunction,Conductor*%
G36*
X91316784Y-81718947D02*
G01*
X91332770Y-81720782D01*
X91347910Y-81733162D01*
X91365703Y-81741288D01*
X91375004Y-81755317D01*
X91386859Y-81765011D01*
X91402431Y-81796684D01*
X91413786Y-81831633D01*
X91413788Y-81831639D01*
X91496006Y-81992997D01*
X91602441Y-82139494D01*
X91602445Y-82139499D01*
X91730500Y-82267554D01*
X91730505Y-82267558D01*
X91858287Y-82360396D01*
X91877006Y-82373996D01*
X91978780Y-82425853D01*
X92008684Y-82441090D01*
X92059480Y-82489065D01*
X92076275Y-82556886D01*
X92053737Y-82623021D01*
X91999022Y-82666472D01*
X91990708Y-82669506D01*
X91961781Y-82678905D01*
X91772439Y-82775380D01*
X91718282Y-82814727D01*
X91718282Y-82814728D01*
X92350591Y-83447037D01*
X92287007Y-83464075D01*
X92172993Y-83529901D01*
X92079901Y-83622993D01*
X92014075Y-83737007D01*
X91997037Y-83800591D01*
X91364728Y-83168282D01*
X91347165Y-83169664D01*
X91329490Y-83183295D01*
X91259876Y-83189275D01*
X91198081Y-83156669D01*
X91163723Y-83095831D01*
X91160500Y-83067744D01*
X91160500Y-81835001D01*
X91165033Y-81819561D01*
X91164574Y-81803477D01*
X91174674Y-81786726D01*
X91180185Y-81767962D01*
X91192344Y-81757425D01*
X91200655Y-81743645D01*
X91218208Y-81735014D01*
X91232989Y-81722207D01*
X91248915Y-81719917D01*
X91263356Y-81712817D01*
X91282787Y-81715046D01*
X91302147Y-81712263D01*
X91316784Y-81718947D01*
G37*
%TD.AperFunction*%
%TA.AperFunction,Conductor*%
G36*
X93586920Y-82064788D02*
G01*
X93621277Y-82125627D01*
X93624500Y-82153713D01*
X93624500Y-83087690D01*
X93604815Y-83154729D01*
X93588181Y-83175371D01*
X92962962Y-83800590D01*
X92945925Y-83737007D01*
X92880099Y-83622993D01*
X92787007Y-83529901D01*
X92672993Y-83464075D01*
X92609409Y-83447037D01*
X93241716Y-82814728D01*
X93187550Y-82775375D01*
X92998217Y-82678904D01*
X92969292Y-82669506D01*
X92911616Y-82630068D01*
X92884418Y-82565710D01*
X92896333Y-82496863D01*
X92943577Y-82445388D01*
X92951315Y-82441090D01*
X93082994Y-82373996D01*
X93229501Y-82267553D01*
X93357553Y-82139501D01*
X93357555Y-82139497D01*
X93357558Y-82139495D01*
X93400182Y-82080828D01*
X93455511Y-82038162D01*
X93525125Y-82032183D01*
X93586920Y-82064788D01*
G37*
%TD.AperFunction*%
%TA.AperFunction,Conductor*%
G36*
X93595270Y-71991717D02*
G01*
X93595270Y-71991716D01*
X93634622Y-71937554D01*
X93731094Y-71748219D01*
X93733568Y-71740606D01*
X93773005Y-71682930D01*
X93837363Y-71655731D01*
X93906209Y-71667644D01*
X93957686Y-71714887D01*
X93975500Y-71778922D01*
X93975500Y-74373216D01*
X93955815Y-74440255D01*
X93903011Y-74486010D01*
X93842350Y-74496878D01*
X93830693Y-74496015D01*
X93769057Y-74479500D01*
X93610943Y-74479500D01*
X93610197Y-74479699D01*
X93602929Y-74479162D01*
X93574338Y-74468418D01*
X93545040Y-74459815D01*
X93541947Y-74456245D01*
X93537525Y-74454584D01*
X93519279Y-74430085D01*
X93499285Y-74407011D01*
X93498612Y-74402337D01*
X93495791Y-74398548D01*
X93493687Y-74368079D01*
X93489341Y-74337853D01*
X93491196Y-74332001D01*
X93490978Y-74328844D01*
X93493861Y-74323593D01*
X93501594Y-74299205D01*
X93546211Y-74211639D01*
X93546212Y-74211636D01*
X93557568Y-74176684D01*
X93602171Y-74039409D01*
X93616765Y-73947259D01*
X93630500Y-73860551D01*
X93630500Y-73679448D01*
X93614019Y-73575397D01*
X93602171Y-73500591D01*
X93565924Y-73389031D01*
X93546212Y-73328363D01*
X93546211Y-73328360D01*
X93501426Y-73240466D01*
X93463996Y-73167006D01*
X93364823Y-73030505D01*
X93357558Y-73020505D01*
X93357554Y-73020500D01*
X93229499Y-72892445D01*
X93229494Y-72892441D01*
X93082995Y-72786004D01*
X92951314Y-72718908D01*
X92900519Y-72670934D01*
X92883724Y-72603113D01*
X92906262Y-72536978D01*
X92960977Y-72493527D01*
X92969295Y-72490492D01*
X92998217Y-72481095D01*
X93187554Y-72384622D01*
X93241716Y-72345270D01*
X93241717Y-72345270D01*
X92609408Y-71712962D01*
X92672993Y-71695925D01*
X92787007Y-71630099D01*
X92880099Y-71537007D01*
X92945925Y-71422993D01*
X92962962Y-71359408D01*
X93595270Y-71991717D01*
G37*
%TD.AperFunction*%
%TA.AperFunction,Conductor*%
G36*
X92014075Y-71422993D02*
G01*
X92079901Y-71537007D01*
X92172993Y-71630099D01*
X92287007Y-71695925D01*
X92350590Y-71712962D01*
X91718282Y-72345269D01*
X91718282Y-72345270D01*
X91772449Y-72384624D01*
X91961780Y-72481094D01*
X91990705Y-72490492D01*
X92048381Y-72529929D01*
X92075580Y-72594287D01*
X92063667Y-72663134D01*
X92016424Y-72714610D01*
X92008685Y-72718908D01*
X91877004Y-72786004D01*
X91730505Y-72892441D01*
X91730500Y-72892445D01*
X91602445Y-73020500D01*
X91602441Y-73020505D01*
X91496006Y-73167002D01*
X91413788Y-73328360D01*
X91413787Y-73328363D01*
X91402431Y-73363316D01*
X91362993Y-73420992D01*
X91298635Y-73448190D01*
X91229788Y-73436275D01*
X91178313Y-73389031D01*
X91160500Y-73324998D01*
X91160500Y-72092253D01*
X91180185Y-72025214D01*
X91232989Y-71979459D01*
X91302147Y-71969515D01*
X91347853Y-71990388D01*
X91364728Y-71991716D01*
X91997037Y-71359408D01*
X92014075Y-71422993D01*
G37*
%TD.AperFunction*%
%TA.AperFunction,Conductor*%
G36*
X111335269Y-72001716D02*
G01*
X111365770Y-71999316D01*
X111434148Y-72013680D01*
X111483905Y-72062731D01*
X111499500Y-72122934D01*
X111499500Y-73240466D01*
X111479815Y-73307505D01*
X111427011Y-73353260D01*
X111357853Y-73363204D01*
X111294297Y-73334179D01*
X111265016Y-73296761D01*
X111203997Y-73177007D01*
X111203996Y-73177006D01*
X111097558Y-73030505D01*
X111097554Y-73030500D01*
X110969499Y-72902445D01*
X110969494Y-72902441D01*
X110822995Y-72796004D01*
X110691314Y-72728908D01*
X110640519Y-72680934D01*
X110623724Y-72613113D01*
X110646262Y-72546978D01*
X110700977Y-72503527D01*
X110709295Y-72500492D01*
X110738217Y-72491095D01*
X110927554Y-72394622D01*
X110981716Y-72355270D01*
X110981717Y-72355270D01*
X110349408Y-71722962D01*
X110412993Y-71705925D01*
X110527007Y-71640099D01*
X110620099Y-71547007D01*
X110685925Y-71432993D01*
X110702962Y-71369408D01*
X111335269Y-72001716D01*
G37*
%TD.AperFunction*%
%TA.AperFunction,Conductor*%
G36*
X109049675Y-69032463D02*
G01*
X109074233Y-69035281D01*
X109082615Y-69042135D01*
X109093001Y-69045185D01*
X109109184Y-69063861D01*
X109128321Y-69079510D01*
X109135635Y-69094388D01*
X109138756Y-69097989D01*
X109143893Y-69111183D01*
X109153786Y-69141633D01*
X109153788Y-69141639D01*
X109193942Y-69220444D01*
X109230910Y-69292997D01*
X109236006Y-69302997D01*
X109342441Y-69449494D01*
X109342445Y-69449499D01*
X109470500Y-69577554D01*
X109470505Y-69577558D01*
X109589623Y-69664101D01*
X109617006Y-69683996D01*
X109709531Y-69731140D01*
X109748684Y-69751090D01*
X109799480Y-69799065D01*
X109816275Y-69866886D01*
X109793737Y-69933021D01*
X109739022Y-69976472D01*
X109730708Y-69979506D01*
X109701781Y-69988905D01*
X109512439Y-70085380D01*
X109458282Y-70124727D01*
X109458282Y-70124728D01*
X110090591Y-70757037D01*
X110027007Y-70774075D01*
X109912993Y-70839901D01*
X109819901Y-70932993D01*
X109754075Y-71047007D01*
X109737037Y-71110591D01*
X109104728Y-70478282D01*
X109104727Y-70478282D01*
X109065380Y-70532440D01*
X109065378Y-70532443D01*
X109009984Y-70641159D01*
X108962010Y-70691954D01*
X108894188Y-70708749D01*
X108828054Y-70686211D01*
X108784603Y-70631496D01*
X108775500Y-70584863D01*
X108775500Y-69246899D01*
X108795185Y-69179860D01*
X108811819Y-69159218D01*
X108909218Y-69061819D01*
X108970541Y-69028334D01*
X108996899Y-69025500D01*
X109025962Y-69025500D01*
X109049675Y-69032463D01*
G37*
%TD.AperFunction*%
%TA.AperFunction,Conductor*%
G36*
X111446946Y-69138185D02*
G01*
X111490397Y-69192900D01*
X111499500Y-69239533D01*
X111499500Y-70357065D01*
X111479815Y-70424104D01*
X111427011Y-70469859D01*
X111365770Y-70480683D01*
X111335269Y-70478282D01*
X110702962Y-71110590D01*
X110685925Y-71047007D01*
X110620099Y-70932993D01*
X110527007Y-70839901D01*
X110412993Y-70774075D01*
X110349409Y-70757037D01*
X110981716Y-70124728D01*
X110927550Y-70085375D01*
X110738217Y-69988904D01*
X110709292Y-69979506D01*
X110651616Y-69940068D01*
X110624418Y-69875710D01*
X110636333Y-69806863D01*
X110683577Y-69755388D01*
X110691315Y-69751090D01*
X110822994Y-69683996D01*
X110969501Y-69577553D01*
X111097553Y-69449501D01*
X111203996Y-69302994D01*
X111265015Y-69183237D01*
X111312990Y-69132442D01*
X111380811Y-69115647D01*
X111446946Y-69138185D01*
G37*
%TD.AperFunction*%
%TA.AperFunction,Conductor*%
G36*
X91365703Y-69041288D02*
G01*
X91402431Y-69096684D01*
X91413786Y-69131633D01*
X91413788Y-69131639D01*
X91496006Y-69292997D01*
X91602441Y-69439494D01*
X91602445Y-69439499D01*
X91730500Y-69567554D01*
X91730505Y-69567558D01*
X91858287Y-69660396D01*
X91877006Y-69673996D01*
X91978780Y-69725853D01*
X92008684Y-69741090D01*
X92059480Y-69789065D01*
X92076275Y-69856886D01*
X92053737Y-69923021D01*
X91999022Y-69966472D01*
X91990708Y-69969506D01*
X91961781Y-69978905D01*
X91772439Y-70075380D01*
X91718282Y-70114727D01*
X91718282Y-70114728D01*
X92350591Y-70747037D01*
X92287007Y-70764075D01*
X92172993Y-70829901D01*
X92079901Y-70922993D01*
X92014075Y-71037007D01*
X91997037Y-71100591D01*
X91364728Y-70468282D01*
X91347165Y-70469664D01*
X91329490Y-70483295D01*
X91259876Y-70489275D01*
X91198081Y-70456669D01*
X91163723Y-70395831D01*
X91160500Y-70367744D01*
X91160500Y-69135001D01*
X91180185Y-69067962D01*
X91232989Y-69022207D01*
X91302147Y-69012263D01*
X91365703Y-69041288D01*
G37*
%TD.AperFunction*%
%TD*%
M02*
