%TF.GenerationSoftware,KiCad,Pcbnew,9.0.2*%
%TF.CreationDate,2025-10-08T13:44:56-04:00*%
%TF.ProjectId,pcb,7063622e-6b69-4636-9164-5f7063625858,rev?*%
%TF.SameCoordinates,Original*%
%TF.FileFunction,Soldermask,Bot*%
%TF.FilePolarity,Negative*%
%FSLAX46Y46*%
G04 Gerber Fmt 4.6, Leading zero omitted, Abs format (unit mm)*
G04 Created by KiCad (PCBNEW 9.0.2) date 2025-10-08 13:44:56*
%MOMM*%
%LPD*%
G01*
G04 APERTURE LIST*
%ADD10R,1.700000X1.700000*%
%ADD11C,1.700000*%
%ADD12C,0.650000*%
%ADD13O,1.000000X2.100000*%
%ADD14O,1.000000X1.600000*%
G04 APERTURE END LIST*
D10*
%TO.C,J4*%
X98790000Y-114150000D03*
D11*
X101330000Y-114150000D03*
X103870000Y-114150000D03*
%TD*%
D10*
%TO.C,J2*%
X92480000Y-66150000D03*
D11*
X92480000Y-68690000D03*
X92480000Y-71230000D03*
X92480000Y-73770000D03*
X92480000Y-76310000D03*
X92480000Y-78850000D03*
X92480000Y-81390000D03*
X92480000Y-83930000D03*
X92480000Y-86470000D03*
X92480000Y-89010000D03*
X92480000Y-91550000D03*
X92480000Y-94090000D03*
X92480000Y-96630000D03*
X92480000Y-99170000D03*
X92480000Y-101710000D03*
X92480000Y-104250000D03*
X92480000Y-106790000D03*
X92480000Y-109330000D03*
X92480000Y-111870000D03*
X92480000Y-114410000D03*
%TD*%
D10*
%TO.C,J3*%
X110220000Y-66160000D03*
D11*
X110220000Y-68700000D03*
X110220000Y-71240000D03*
X110220000Y-73780000D03*
X110220000Y-76320000D03*
X110220000Y-78860000D03*
X110220000Y-81400000D03*
X110220000Y-83940000D03*
X110220000Y-86480000D03*
X110220000Y-89020000D03*
X110220000Y-91560000D03*
X110220000Y-94100000D03*
X110220000Y-96640000D03*
X110220000Y-99180000D03*
X110220000Y-101720000D03*
X110220000Y-104260000D03*
X110220000Y-106800000D03*
X110220000Y-109340000D03*
X110220000Y-111880000D03*
X110220000Y-114420000D03*
%TD*%
D12*
%TO.C,J1*%
X104290000Y-69520000D03*
X98510000Y-69520000D03*
D13*
X105720000Y-70050000D03*
D14*
X105720000Y-65870000D03*
D13*
X97080000Y-70050000D03*
D14*
X97080000Y-65870000D03*
%TD*%
M02*
