%TF.GenerationSoftware,KiCad,Pcbnew,9.0.2*%
%TF.CreationDate,2025-10-06T12:20:04-04:00*%
%TF.ProjectId,pcb,7063622e-6b69-4636-9164-5f7063625858,rev?*%
%TF.SameCoordinates,Original*%
%TF.FileFunction,Legend,Top*%
%TF.FilePolarity,Positive*%
%FSLAX46Y46*%
G04 Gerber Fmt 4.6, Leading zero omitted, Abs format (unit mm)*
G04 Created by KiCad (PCBNEW 9.0.2) date 2025-10-06 12:20:04*
%MOMM*%
%LPD*%
G01*
G04 APERTURE LIST*
%ADD10C,0.100000*%
%ADD11C,0.000000*%
%ADD12C,0.120000*%
G04 APERTURE END LIST*
D10*
X94500038Y-92182306D02*
X94452419Y-92277544D01*
X94452419Y-92277544D02*
X94452419Y-92420401D01*
X94452419Y-92420401D02*
X94500038Y-92563258D01*
X94500038Y-92563258D02*
X94595276Y-92658496D01*
X94595276Y-92658496D02*
X94690514Y-92706115D01*
X94690514Y-92706115D02*
X94880990Y-92753734D01*
X94880990Y-92753734D02*
X95023847Y-92753734D01*
X95023847Y-92753734D02*
X95214323Y-92706115D01*
X95214323Y-92706115D02*
X95309561Y-92658496D01*
X95309561Y-92658496D02*
X95404800Y-92563258D01*
X95404800Y-92563258D02*
X95452419Y-92420401D01*
X95452419Y-92420401D02*
X95452419Y-92325163D01*
X95452419Y-92325163D02*
X95404800Y-92182306D01*
X95404800Y-92182306D02*
X95357180Y-92134687D01*
X95357180Y-92134687D02*
X95023847Y-92134687D01*
X95023847Y-92134687D02*
X95023847Y-92325163D01*
X95452419Y-91706115D02*
X94785752Y-91706115D01*
X94452419Y-91706115D02*
X94500038Y-91753734D01*
X94500038Y-91753734D02*
X94547657Y-91706115D01*
X94547657Y-91706115D02*
X94500038Y-91658496D01*
X94500038Y-91658496D02*
X94452419Y-91706115D01*
X94452419Y-91706115D02*
X94547657Y-91706115D01*
X94785752Y-91372782D02*
X94785752Y-90991830D01*
X94452419Y-91229925D02*
X95309561Y-91229925D01*
X95309561Y-91229925D02*
X95404800Y-91182306D01*
X95404800Y-91182306D02*
X95452419Y-91087068D01*
X95452419Y-91087068D02*
X95452419Y-90991830D01*
X95452419Y-90658496D02*
X94452419Y-90658496D01*
X95452419Y-90229925D02*
X94928609Y-90229925D01*
X94928609Y-90229925D02*
X94833371Y-90277544D01*
X94833371Y-90277544D02*
X94785752Y-90372782D01*
X94785752Y-90372782D02*
X94785752Y-90515639D01*
X94785752Y-90515639D02*
X94833371Y-90610877D01*
X94833371Y-90610877D02*
X94880990Y-90658496D01*
X94785752Y-89325163D02*
X95452419Y-89325163D01*
X94785752Y-89753734D02*
X95309561Y-89753734D01*
X95309561Y-89753734D02*
X95404800Y-89706115D01*
X95404800Y-89706115D02*
X95452419Y-89610877D01*
X95452419Y-89610877D02*
X95452419Y-89468020D01*
X95452419Y-89468020D02*
X95404800Y-89372782D01*
X95404800Y-89372782D02*
X95357180Y-89325163D01*
X95452419Y-88848972D02*
X94452419Y-88848972D01*
X94833371Y-88848972D02*
X94785752Y-88753734D01*
X94785752Y-88753734D02*
X94785752Y-88563258D01*
X94785752Y-88563258D02*
X94833371Y-88468020D01*
X94833371Y-88468020D02*
X94880990Y-88420401D01*
X94880990Y-88420401D02*
X94976228Y-88372782D01*
X94976228Y-88372782D02*
X95261942Y-88372782D01*
X95261942Y-88372782D02*
X95357180Y-88420401D01*
X95357180Y-88420401D02*
X95404800Y-88468020D01*
X95404800Y-88468020D02*
X95452419Y-88563258D01*
X95452419Y-88563258D02*
X95452419Y-88753734D01*
X95452419Y-88753734D02*
X95404800Y-88848972D01*
X95357180Y-87944210D02*
X95404800Y-87896591D01*
X95404800Y-87896591D02*
X95452419Y-87944210D01*
X95452419Y-87944210D02*
X95404800Y-87991829D01*
X95404800Y-87991829D02*
X95357180Y-87944210D01*
X95357180Y-87944210D02*
X95452419Y-87944210D01*
X94833371Y-87944210D02*
X94880990Y-87896591D01*
X94880990Y-87896591D02*
X94928609Y-87944210D01*
X94928609Y-87944210D02*
X94880990Y-87991829D01*
X94880990Y-87991829D02*
X94833371Y-87944210D01*
X94833371Y-87944210D02*
X94928609Y-87944210D01*
X94976228Y-86087068D02*
X94928609Y-86134687D01*
X94928609Y-86134687D02*
X94880990Y-86229925D01*
X94880990Y-86229925D02*
X94880990Y-86325163D01*
X94880990Y-86325163D02*
X94928609Y-86420401D01*
X94928609Y-86420401D02*
X94976228Y-86468020D01*
X94976228Y-86468020D02*
X95071466Y-86515639D01*
X95071466Y-86515639D02*
X95166704Y-86515639D01*
X95166704Y-86515639D02*
X95261942Y-86468020D01*
X95261942Y-86468020D02*
X95309561Y-86420401D01*
X95309561Y-86420401D02*
X95357180Y-86325163D01*
X95357180Y-86325163D02*
X95357180Y-86229925D01*
X95357180Y-86229925D02*
X95309561Y-86134687D01*
X95309561Y-86134687D02*
X95261942Y-86087068D01*
X94880990Y-86087068D02*
X95261942Y-86087068D01*
X95261942Y-86087068D02*
X95309561Y-86039449D01*
X95309561Y-86039449D02*
X95309561Y-85991830D01*
X95309561Y-85991830D02*
X95261942Y-85896591D01*
X95261942Y-85896591D02*
X95166704Y-85848972D01*
X95166704Y-85848972D02*
X94928609Y-85848972D01*
X94928609Y-85848972D02*
X94785752Y-85944211D01*
X94785752Y-85944211D02*
X94690514Y-86087068D01*
X94690514Y-86087068D02*
X94642895Y-86277544D01*
X94642895Y-86277544D02*
X94690514Y-86468020D01*
X94690514Y-86468020D02*
X94785752Y-86610877D01*
X94785752Y-86610877D02*
X94928609Y-86706115D01*
X94928609Y-86706115D02*
X95119085Y-86753734D01*
X95119085Y-86753734D02*
X95309561Y-86706115D01*
X95309561Y-86706115D02*
X95452419Y-86610877D01*
X95452419Y-86610877D02*
X95547657Y-86468020D01*
X95547657Y-86468020D02*
X95595276Y-86277544D01*
X95595276Y-86277544D02*
X95547657Y-86087068D01*
X95547657Y-86087068D02*
X95452419Y-85944211D01*
X95452419Y-85420401D02*
X94452419Y-85420401D01*
X95071466Y-85325163D02*
X95452419Y-85039449D01*
X94785752Y-85039449D02*
X95166704Y-85420401D01*
X95452419Y-84182306D02*
X94928609Y-84182306D01*
X94928609Y-84182306D02*
X94833371Y-84229925D01*
X94833371Y-84229925D02*
X94785752Y-84325163D01*
X94785752Y-84325163D02*
X94785752Y-84515639D01*
X94785752Y-84515639D02*
X94833371Y-84610877D01*
X95404800Y-84182306D02*
X95452419Y-84277544D01*
X95452419Y-84277544D02*
X95452419Y-84515639D01*
X95452419Y-84515639D02*
X95404800Y-84610877D01*
X95404800Y-84610877D02*
X95309561Y-84658496D01*
X95309561Y-84658496D02*
X95214323Y-84658496D01*
X95214323Y-84658496D02*
X95119085Y-84610877D01*
X95119085Y-84610877D02*
X95071466Y-84515639D01*
X95071466Y-84515639D02*
X95071466Y-84277544D01*
X95071466Y-84277544D02*
X95023847Y-84182306D01*
X95404800Y-83753734D02*
X95452419Y-83658496D01*
X95452419Y-83658496D02*
X95452419Y-83468020D01*
X95452419Y-83468020D02*
X95404800Y-83372782D01*
X95404800Y-83372782D02*
X95309561Y-83325163D01*
X95309561Y-83325163D02*
X95261942Y-83325163D01*
X95261942Y-83325163D02*
X95166704Y-83372782D01*
X95166704Y-83372782D02*
X95119085Y-83468020D01*
X95119085Y-83468020D02*
X95119085Y-83610877D01*
X95119085Y-83610877D02*
X95071466Y-83706115D01*
X95071466Y-83706115D02*
X94976228Y-83753734D01*
X94976228Y-83753734D02*
X94928609Y-83753734D01*
X94928609Y-83753734D02*
X94833371Y-83706115D01*
X94833371Y-83706115D02*
X94785752Y-83610877D01*
X94785752Y-83610877D02*
X94785752Y-83468020D01*
X94785752Y-83468020D02*
X94833371Y-83372782D01*
X95452419Y-82896591D02*
X94452419Y-82896591D01*
X95452419Y-82468020D02*
X94928609Y-82468020D01*
X94928609Y-82468020D02*
X94833371Y-82515639D01*
X94833371Y-82515639D02*
X94785752Y-82610877D01*
X94785752Y-82610877D02*
X94785752Y-82753734D01*
X94785752Y-82753734D02*
X94833371Y-82848972D01*
X94833371Y-82848972D02*
X94880990Y-82896591D01*
X95404800Y-82039448D02*
X95452419Y-81944210D01*
X95452419Y-81944210D02*
X95452419Y-81753734D01*
X95452419Y-81753734D02*
X95404800Y-81658496D01*
X95404800Y-81658496D02*
X95309561Y-81610877D01*
X95309561Y-81610877D02*
X95261942Y-81610877D01*
X95261942Y-81610877D02*
X95166704Y-81658496D01*
X95166704Y-81658496D02*
X95119085Y-81753734D01*
X95119085Y-81753734D02*
X95119085Y-81896591D01*
X95119085Y-81896591D02*
X95071466Y-81991829D01*
X95071466Y-81991829D02*
X94976228Y-82039448D01*
X94976228Y-82039448D02*
X94928609Y-82039448D01*
X94928609Y-82039448D02*
X94833371Y-81991829D01*
X94833371Y-81991829D02*
X94785752Y-81896591D01*
X94785752Y-81896591D02*
X94785752Y-81753734D01*
X94785752Y-81753734D02*
X94833371Y-81658496D01*
X94785752Y-80753734D02*
X95452419Y-80753734D01*
X94785752Y-81182305D02*
X95309561Y-81182305D01*
X95309561Y-81182305D02*
X95404800Y-81134686D01*
X95404800Y-81134686D02*
X95452419Y-81039448D01*
X95452419Y-81039448D02*
X95452419Y-80896591D01*
X95452419Y-80896591D02*
X95404800Y-80801353D01*
X95404800Y-80801353D02*
X95357180Y-80753734D01*
X95452419Y-80277543D02*
X94452419Y-80277543D01*
X95071466Y-80182305D02*
X95452419Y-79896591D01*
X94785752Y-79896591D02*
X95166704Y-80277543D01*
X95404800Y-79515638D02*
X95452419Y-79420400D01*
X95452419Y-79420400D02*
X95452419Y-79229924D01*
X95452419Y-79229924D02*
X95404800Y-79134686D01*
X95404800Y-79134686D02*
X95309561Y-79087067D01*
X95309561Y-79087067D02*
X95261942Y-79087067D01*
X95261942Y-79087067D02*
X95166704Y-79134686D01*
X95166704Y-79134686D02*
X95119085Y-79229924D01*
X95119085Y-79229924D02*
X95119085Y-79372781D01*
X95119085Y-79372781D02*
X95071466Y-79468019D01*
X95071466Y-79468019D02*
X94976228Y-79515638D01*
X94976228Y-79515638D02*
X94928609Y-79515638D01*
X94928609Y-79515638D02*
X94833371Y-79468019D01*
X94833371Y-79468019D02*
X94785752Y-79372781D01*
X94785752Y-79372781D02*
X94785752Y-79229924D01*
X94785752Y-79229924D02*
X94833371Y-79134686D01*
X106329961Y-95451979D02*
X108329961Y-95451979D01*
X107091866Y-95642455D02*
X106329961Y-96213884D01*
X107663295Y-96213884D02*
X106901390Y-95451979D01*
X106329961Y-97928170D02*
X107377580Y-97928170D01*
X107377580Y-97928170D02*
X107568057Y-97832932D01*
X107568057Y-97832932D02*
X107663295Y-97642456D01*
X107663295Y-97642456D02*
X107663295Y-97261503D01*
X107663295Y-97261503D02*
X107568057Y-97071027D01*
X106425200Y-97928170D02*
X106329961Y-97737694D01*
X106329961Y-97737694D02*
X106329961Y-97261503D01*
X106329961Y-97261503D02*
X106425200Y-97071027D01*
X106425200Y-97071027D02*
X106615676Y-96975789D01*
X106615676Y-96975789D02*
X106806152Y-96975789D01*
X106806152Y-96975789D02*
X106996628Y-97071027D01*
X106996628Y-97071027D02*
X107091866Y-97261503D01*
X107091866Y-97261503D02*
X107091866Y-97737694D01*
X107091866Y-97737694D02*
X107187104Y-97928170D01*
X106425200Y-98785313D02*
X106329961Y-98975789D01*
X106329961Y-98975789D02*
X106329961Y-99356741D01*
X106329961Y-99356741D02*
X106425200Y-99547218D01*
X106425200Y-99547218D02*
X106615676Y-99642456D01*
X106615676Y-99642456D02*
X106710914Y-99642456D01*
X106710914Y-99642456D02*
X106901390Y-99547218D01*
X106901390Y-99547218D02*
X106996628Y-99356741D01*
X106996628Y-99356741D02*
X106996628Y-99071027D01*
X106996628Y-99071027D02*
X107091866Y-98880551D01*
X107091866Y-98880551D02*
X107282342Y-98785313D01*
X107282342Y-98785313D02*
X107377580Y-98785313D01*
X107377580Y-98785313D02*
X107568057Y-98880551D01*
X107568057Y-98880551D02*
X107663295Y-99071027D01*
X107663295Y-99071027D02*
X107663295Y-99356741D01*
X107663295Y-99356741D02*
X107568057Y-99547218D01*
X106329961Y-100499599D02*
X108329961Y-100499599D01*
X106329961Y-101356742D02*
X107377580Y-101356742D01*
X107377580Y-101356742D02*
X107568057Y-101261504D01*
X107568057Y-101261504D02*
X107663295Y-101071028D01*
X107663295Y-101071028D02*
X107663295Y-100785313D01*
X107663295Y-100785313D02*
X107568057Y-100594837D01*
X107568057Y-100594837D02*
X107472819Y-100499599D01*
X106329961Y-102309123D02*
X108329961Y-102309123D01*
X107568057Y-102309123D02*
X107663295Y-102499599D01*
X107663295Y-102499599D02*
X107663295Y-102880552D01*
X107663295Y-102880552D02*
X107568057Y-103071028D01*
X107568057Y-103071028D02*
X107472819Y-103166266D01*
X107472819Y-103166266D02*
X107282342Y-103261504D01*
X107282342Y-103261504D02*
X106710914Y-103261504D01*
X106710914Y-103261504D02*
X106520438Y-103166266D01*
X106520438Y-103166266D02*
X106425200Y-103071028D01*
X106425200Y-103071028D02*
X106329961Y-102880552D01*
X106329961Y-102880552D02*
X106329961Y-102499599D01*
X106329961Y-102499599D02*
X106425200Y-102309123D01*
X106329961Y-104404361D02*
X106425200Y-104213885D01*
X106425200Y-104213885D02*
X106520438Y-104118647D01*
X106520438Y-104118647D02*
X106710914Y-104023409D01*
X106710914Y-104023409D02*
X107282342Y-104023409D01*
X107282342Y-104023409D02*
X107472819Y-104118647D01*
X107472819Y-104118647D02*
X107568057Y-104213885D01*
X107568057Y-104213885D02*
X107663295Y-104404361D01*
X107663295Y-104404361D02*
X107663295Y-104690076D01*
X107663295Y-104690076D02*
X107568057Y-104880552D01*
X107568057Y-104880552D02*
X107472819Y-104975790D01*
X107472819Y-104975790D02*
X107282342Y-105071028D01*
X107282342Y-105071028D02*
X106710914Y-105071028D01*
X106710914Y-105071028D02*
X106520438Y-104975790D01*
X106520438Y-104975790D02*
X106425200Y-104880552D01*
X106425200Y-104880552D02*
X106329961Y-104690076D01*
X106329961Y-104690076D02*
X106329961Y-104404361D01*
X106329961Y-106785314D02*
X107377580Y-106785314D01*
X107377580Y-106785314D02*
X107568057Y-106690076D01*
X107568057Y-106690076D02*
X107663295Y-106499600D01*
X107663295Y-106499600D02*
X107663295Y-106118647D01*
X107663295Y-106118647D02*
X107568057Y-105928171D01*
X106425200Y-106785314D02*
X106329961Y-106594838D01*
X106329961Y-106594838D02*
X106329961Y-106118647D01*
X106329961Y-106118647D02*
X106425200Y-105928171D01*
X106425200Y-105928171D02*
X106615676Y-105832933D01*
X106615676Y-105832933D02*
X106806152Y-105832933D01*
X106806152Y-105832933D02*
X106996628Y-105928171D01*
X106996628Y-105928171D02*
X107091866Y-106118647D01*
X107091866Y-106118647D02*
X107091866Y-106594838D01*
X107091866Y-106594838D02*
X107187104Y-106785314D01*
X106329961Y-107737695D02*
X107663295Y-107737695D01*
X107282342Y-107737695D02*
X107472819Y-107832933D01*
X107472819Y-107832933D02*
X107568057Y-107928171D01*
X107568057Y-107928171D02*
X107663295Y-108118647D01*
X107663295Y-108118647D02*
X107663295Y-108309124D01*
X106329961Y-109832933D02*
X108329961Y-109832933D01*
X106425200Y-109832933D02*
X106329961Y-109642457D01*
X106329961Y-109642457D02*
X106329961Y-109261504D01*
X106329961Y-109261504D02*
X106425200Y-109071028D01*
X106425200Y-109071028D02*
X106520438Y-108975790D01*
X106520438Y-108975790D02*
X106710914Y-108880552D01*
X106710914Y-108880552D02*
X107282342Y-108880552D01*
X107282342Y-108880552D02*
X107472819Y-108975790D01*
X107472819Y-108975790D02*
X107568057Y-109071028D01*
X107568057Y-109071028D02*
X107663295Y-109261504D01*
X107663295Y-109261504D02*
X107663295Y-109642457D01*
X107663295Y-109642457D02*
X107568057Y-109832933D01*
D11*
%TO.C,G\u002A\u002A\u002A*%
G36*
X99584242Y-109520515D02*
G01*
X99779526Y-109536041D01*
X99981300Y-109567044D01*
X100191652Y-109614058D01*
X100412665Y-109677617D01*
X100646426Y-109758254D01*
X100895019Y-109856504D01*
X101157253Y-109971401D01*
X101245486Y-110010440D01*
X101340354Y-110050245D01*
X101433535Y-110087463D01*
X101516709Y-110118744D01*
X101563280Y-110134907D01*
X101826054Y-110207688D01*
X102098164Y-110256366D01*
X102377993Y-110281107D01*
X102663925Y-110282077D01*
X102954344Y-110259440D01*
X103247633Y-110213361D01*
X103542177Y-110144008D01*
X103836359Y-110051544D01*
X104128564Y-109936135D01*
X104305628Y-109854303D01*
X104377962Y-109818639D01*
X104446950Y-109784009D01*
X104506812Y-109753359D01*
X104551769Y-109729634D01*
X104568535Y-109720324D01*
X104605037Y-109701903D01*
X104632291Y-109692967D01*
X104641753Y-109693894D01*
X104638728Y-109708042D01*
X104624830Y-109742316D01*
X104601640Y-109793310D01*
X104570737Y-109857618D01*
X104533703Y-109931833D01*
X104508642Y-109980773D01*
X104468179Y-110059386D01*
X104432152Y-110130025D01*
X104402266Y-110189296D01*
X104380226Y-110233802D01*
X104367735Y-110260147D01*
X104365534Y-110265842D01*
X104378239Y-110268137D01*
X104413926Y-110270185D01*
X104468953Y-110271893D01*
X104539676Y-110273166D01*
X104622454Y-110273910D01*
X104684245Y-110274067D01*
X104778116Y-110274566D01*
X104860533Y-110275978D01*
X104928149Y-110278178D01*
X104977622Y-110281039D01*
X105005606Y-110284433D01*
X105010594Y-110286424D01*
X105003516Y-110299590D01*
X104976897Y-110328348D01*
X104931937Y-110371594D01*
X104869837Y-110428226D01*
X104791795Y-110497138D01*
X104699011Y-110577229D01*
X104638438Y-110628772D01*
X104539814Y-110709211D01*
X104423991Y-110798554D01*
X104296170Y-110893156D01*
X104161554Y-110989370D01*
X104025345Y-111083552D01*
X103892746Y-111172056D01*
X103768957Y-111251235D01*
X103659181Y-111317446D01*
X103640010Y-111328445D01*
X103403004Y-111454200D01*
X103172629Y-111558614D01*
X102950332Y-111641152D01*
X102737559Y-111701282D01*
X102535758Y-111738469D01*
X102524438Y-111739909D01*
X102453708Y-111745622D01*
X102361573Y-111748393D01*
X102253073Y-111748358D01*
X102133249Y-111745652D01*
X102007143Y-111740413D01*
X101879794Y-111732776D01*
X101756244Y-111722878D01*
X101703060Y-111717705D01*
X101546089Y-111699653D01*
X101393087Y-111678040D01*
X101240116Y-111652009D01*
X101083236Y-111620702D01*
X100918508Y-111583261D01*
X100741993Y-111538829D01*
X100549752Y-111486546D01*
X100337845Y-111425557D01*
X100271981Y-111406068D01*
X100037866Y-111337206D01*
X99826822Y-111276886D01*
X99727165Y-111249498D01*
X101012994Y-111249498D01*
X101020364Y-111271941D01*
X101037597Y-111285889D01*
X101074274Y-111291424D01*
X101116768Y-111275396D01*
X101161470Y-111241144D01*
X101204773Y-111192004D01*
X101243069Y-111131316D01*
X101269724Y-111071117D01*
X101286670Y-111031055D01*
X101303155Y-111011351D01*
X101323141Y-111006247D01*
X101335794Y-111007993D01*
X101345709Y-111016014D01*
X101354406Y-111034481D01*
X101363404Y-111067567D01*
X101374224Y-111119445D01*
X101384969Y-111175980D01*
X101400502Y-111253641D01*
X101414249Y-111309121D01*
X101427517Y-111346683D01*
X101441610Y-111370591D01*
X101446123Y-111375665D01*
X101484994Y-111400550D01*
X101525708Y-111402535D01*
X101561173Y-111381314D01*
X101561786Y-111380644D01*
X101583360Y-111344619D01*
X101591090Y-111297073D01*
X101585011Y-111234299D01*
X101565158Y-111152592D01*
X101563936Y-111148392D01*
X101545331Y-111089011D01*
X101528147Y-111040071D01*
X102050227Y-111040071D01*
X102057679Y-111138633D01*
X102075897Y-111229052D01*
X102102396Y-111298791D01*
X102148739Y-111363836D01*
X102208351Y-111408454D01*
X102277030Y-111430911D01*
X102350576Y-111429472D01*
X102391109Y-111418043D01*
X102440993Y-111390334D01*
X102475219Y-111353466D01*
X102488471Y-111313242D01*
X102488490Y-111311741D01*
X102483127Y-111277413D01*
X102464465Y-111259596D01*
X102428649Y-111256464D01*
X102385832Y-111263142D01*
X102328299Y-111269727D01*
X102284913Y-111259779D01*
X102249921Y-111230161D01*
X102217572Y-111177742D01*
X102213265Y-111169097D01*
X102191870Y-111117698D01*
X102180891Y-111067242D01*
X102177474Y-111004390D01*
X102177455Y-111001702D01*
X102182271Y-110922533D01*
X102198605Y-110864517D01*
X102227759Y-110824221D01*
X102251013Y-110807640D01*
X102276975Y-110795974D01*
X102299610Y-110797211D01*
X102331631Y-110812120D01*
X102332477Y-110812575D01*
X102377122Y-110828826D01*
X102407286Y-110824021D01*
X102421010Y-110800602D01*
X102416337Y-110761008D01*
X102401734Y-110726251D01*
X102387357Y-110707967D01*
X102556562Y-110707967D01*
X102557608Y-110753374D01*
X102563217Y-110815234D01*
X102573384Y-110897427D01*
X102580470Y-110949486D01*
X102590826Y-111026089D01*
X102600667Y-111102346D01*
X102608935Y-111169835D01*
X102614570Y-111220129D01*
X102614902Y-111223428D01*
X102620757Y-111267930D01*
X102630446Y-111300224D01*
X102647323Y-111321152D01*
X102674745Y-111331553D01*
X102716067Y-111332268D01*
X102774643Y-111324138D01*
X102853829Y-111308003D01*
X102905951Y-111296346D01*
X102984535Y-111274676D01*
X103037839Y-111250748D01*
X103067164Y-111223813D01*
X103074234Y-111199530D01*
X103062302Y-111180520D01*
X103029492Y-111170312D01*
X102980281Y-111169589D01*
X102927658Y-111177195D01*
X102874272Y-111186122D01*
X102821407Y-111191692D01*
X102798261Y-111192620D01*
X102743544Y-111192620D01*
X102736007Y-111102762D01*
X102723011Y-110964817D01*
X102709131Y-110851938D01*
X102694032Y-110762573D01*
X102677380Y-110695168D01*
X102658839Y-110648171D01*
X102649528Y-110635551D01*
X102985064Y-110635551D01*
X102985786Y-110641225D01*
X102995893Y-110695157D01*
X103012479Y-110762658D01*
X103033341Y-110836528D01*
X103056276Y-110909568D01*
X103079080Y-110974581D01*
X103099551Y-111024367D01*
X103108216Y-111041288D01*
X103152316Y-111093659D01*
X103211310Y-111130790D01*
X103278090Y-111150249D01*
X103345545Y-111149607D01*
X103387516Y-111136747D01*
X103429825Y-111103211D01*
X103459977Y-111048153D01*
X103477484Y-110973984D01*
X103481857Y-110883116D01*
X103472605Y-110777959D01*
X103467165Y-110744353D01*
X103445888Y-110642161D01*
X103422653Y-110565287D01*
X103396853Y-110512455D01*
X103367880Y-110482394D01*
X103338133Y-110473752D01*
X103312919Y-110480910D01*
X103298294Y-110503943D01*
X103293963Y-110545188D01*
X103299630Y-110606980D01*
X103312253Y-110678235D01*
X103328279Y-110771575D01*
X103337527Y-110856289D01*
X103339795Y-110927838D01*
X103334886Y-110981685D01*
X103326701Y-111007122D01*
X103302601Y-111027384D01*
X103267605Y-111032168D01*
X103237827Y-111022217D01*
X103222070Y-111004707D01*
X103205028Y-110970173D01*
X103185851Y-110916255D01*
X103163688Y-110840591D01*
X103140561Y-110752253D01*
X103118438Y-110669919D01*
X103098921Y-110610737D01*
X103080430Y-110571564D01*
X103061382Y-110549261D01*
X103040197Y-110540684D01*
X103033864Y-110540314D01*
X103002241Y-110551241D01*
X102985810Y-110583333D01*
X102985064Y-110635551D01*
X102649528Y-110635551D01*
X102638075Y-110620027D01*
X102630764Y-110614665D01*
X102609760Y-110608406D01*
X102589797Y-110621410D01*
X102580843Y-110631647D01*
X102568174Y-110650985D01*
X102560082Y-110675131D01*
X102556562Y-110707967D01*
X102387357Y-110707967D01*
X102365166Y-110679745D01*
X102317701Y-110654120D01*
X102263967Y-110648626D01*
X102208589Y-110662513D01*
X102156196Y-110695032D01*
X102111414Y-110745432D01*
X102093786Y-110776155D01*
X102068147Y-110850768D01*
X102053672Y-110941428D01*
X102050227Y-111040071D01*
X101528147Y-111040071D01*
X101525734Y-111033200D01*
X101508533Y-110990416D01*
X101503826Y-110980506D01*
X101478094Y-110930067D01*
X101519156Y-110891611D01*
X101563655Y-110845104D01*
X101605666Y-110792739D01*
X101641148Y-110740511D01*
X101666060Y-110694415D01*
X101676363Y-110660445D01*
X101676436Y-110658243D01*
X101668956Y-110622405D01*
X101646661Y-110608468D01*
X101609768Y-110616360D01*
X101558493Y-110646007D01*
X101493052Y-110697336D01*
X101450909Y-110734957D01*
X101411280Y-110770096D01*
X101381251Y-110793812D01*
X101364277Y-110803571D01*
X101362307Y-110799905D01*
X101367477Y-110775590D01*
X101372860Y-110731893D01*
X101377660Y-110676038D01*
X101379917Y-110639934D01*
X101382866Y-110578948D01*
X101383147Y-110538067D01*
X101379696Y-110510816D01*
X101371444Y-110490722D01*
X101357326Y-110471313D01*
X101350853Y-110463545D01*
X101329874Y-110444687D01*
X103527829Y-110444687D01*
X103532009Y-110472862D01*
X103541930Y-110511201D01*
X103551815Y-110546697D01*
X103566719Y-110599481D01*
X103584941Y-110663601D01*
X103604779Y-110733106D01*
X103624529Y-110802045D01*
X103642489Y-110864466D01*
X103656958Y-110914419D01*
X103666232Y-110945953D01*
X103667357Y-110949669D01*
X103684428Y-110963039D01*
X103720859Y-110964963D01*
X103772129Y-110955761D01*
X103826617Y-110938454D01*
X103887459Y-110908647D01*
X103942753Y-110868932D01*
X103986192Y-110824822D01*
X104011470Y-110781830D01*
X104013489Y-110775099D01*
X104014976Y-110724998D01*
X103999882Y-110669220D01*
X103972383Y-110616045D01*
X103936655Y-110573756D01*
X103900892Y-110551838D01*
X103889430Y-110541980D01*
X103895863Y-110520750D01*
X103897692Y-110517256D01*
X103911601Y-110469372D01*
X103911661Y-110412941D01*
X103898785Y-110360305D01*
X103884165Y-110334295D01*
X103864433Y-110312827D01*
X103843233Y-110303016D01*
X103810707Y-110301779D01*
X103785848Y-110303516D01*
X103730369Y-110314366D01*
X103668018Y-110336022D01*
X103608275Y-110364302D01*
X103560618Y-110395025D01*
X103544172Y-110410120D01*
X103531822Y-110426543D01*
X103527829Y-110444687D01*
X101329874Y-110444687D01*
X101316076Y-110432284D01*
X101283250Y-110420505D01*
X101282844Y-110420503D01*
X101256274Y-110426117D01*
X101235801Y-110445003D01*
X101220244Y-110480224D01*
X101208420Y-110534845D01*
X101199149Y-110611930D01*
X101196270Y-110645016D01*
X101182375Y-110766941D01*
X101160392Y-110872915D01*
X101127491Y-110973086D01*
X101080844Y-111077602D01*
X101069279Y-111100580D01*
X101036814Y-111167545D01*
X101018265Y-111215942D01*
X101012994Y-111249498D01*
X99727165Y-111249498D01*
X99636853Y-111224678D01*
X99465963Y-111180151D01*
X99312157Y-111142875D01*
X99173437Y-111112420D01*
X99047807Y-111088356D01*
X98933272Y-111070253D01*
X98827836Y-111057680D01*
X98729501Y-111050207D01*
X98636273Y-111047403D01*
X98607935Y-111047416D01*
X98533211Y-111049152D01*
X98461968Y-111052898D01*
X98399415Y-111058173D01*
X98350764Y-111064495D01*
X98321226Y-111071380D01*
X98315615Y-111074475D01*
X98306867Y-111095094D01*
X98296914Y-111138369D01*
X98286230Y-111200385D01*
X98275291Y-111277225D01*
X98264571Y-111364973D01*
X98254546Y-111459715D01*
X98245690Y-111557535D01*
X98238480Y-111654516D01*
X98233389Y-111746743D01*
X98233035Y-111755068D01*
X98224369Y-111964737D01*
X98126608Y-111964737D01*
X98028847Y-111964737D01*
X98028847Y-111914419D01*
X98031014Y-111870393D01*
X98037031Y-111805804D01*
X98046172Y-111726317D01*
X98057708Y-111637596D01*
X98070914Y-111545306D01*
X98085062Y-111455112D01*
X98095844Y-111392306D01*
X98146171Y-111149591D01*
X98210261Y-110907859D01*
X98289448Y-110663265D01*
X98306301Y-110618971D01*
X98976209Y-110618971D01*
X98978734Y-110668783D01*
X98995805Y-110699641D01*
X99027536Y-110712731D01*
X99039086Y-110713375D01*
X99092139Y-110700317D01*
X99144734Y-110661036D01*
X99197055Y-110595370D01*
X99222712Y-110553403D01*
X99248853Y-110506957D01*
X99269659Y-110469225D01*
X99281796Y-110446279D01*
X99283422Y-110442753D01*
X99296082Y-110443436D01*
X99326545Y-110451664D01*
X99367927Y-110465013D01*
X99413344Y-110481056D01*
X99455914Y-110497367D01*
X99488751Y-110511519D01*
X99504622Y-110520714D01*
X99504004Y-110534858D01*
X99498551Y-110569272D01*
X99489247Y-110618245D01*
X99481050Y-110657747D01*
X99467183Y-110729524D01*
X99461187Y-110780097D01*
X99462674Y-110813571D01*
X99465447Y-110823543D01*
X99487380Y-110858967D01*
X99518421Y-110870679D01*
X99558489Y-110859624D01*
X99799392Y-110859624D01*
X99807500Y-110902299D01*
X99829638Y-110924339D01*
X99862525Y-110925334D01*
X99902880Y-110904877D01*
X99934896Y-110876451D01*
X99966216Y-110840844D01*
X99991368Y-110807318D01*
X99998908Y-110794827D01*
X100009931Y-110777473D01*
X100024975Y-110769034D01*
X100051548Y-110767707D01*
X100095918Y-110771562D01*
X100139314Y-110776823D01*
X100170671Y-110781987D01*
X100181987Y-110785349D01*
X100181080Y-110799747D01*
X100173721Y-110832752D01*
X100161452Y-110877571D01*
X100159769Y-110883267D01*
X100142250Y-110946688D01*
X100134094Y-110990437D01*
X100134932Y-111019623D01*
X100144394Y-111039355D01*
X100148176Y-111043521D01*
X100180491Y-111058570D01*
X100221583Y-111051022D01*
X100267499Y-111021668D01*
X100270465Y-111019104D01*
X100291830Y-110998113D01*
X100307991Y-110974731D01*
X100321583Y-110942900D01*
X100335241Y-110896562D01*
X100342406Y-110867379D01*
X100518456Y-110867379D01*
X100526542Y-110974803D01*
X100550927Y-111063643D01*
X100591078Y-111132831D01*
X100646457Y-111181296D01*
X100684664Y-111199249D01*
X100744013Y-111215465D01*
X100790862Y-111215531D01*
X100834015Y-111199267D01*
X100839578Y-111196082D01*
X100876900Y-111160773D01*
X100890766Y-111114687D01*
X100888810Y-111091207D01*
X100873629Y-111072242D01*
X100834816Y-111057256D01*
X100819115Y-111053545D01*
X100764931Y-111035835D01*
X100728713Y-111007449D01*
X100707678Y-110964122D01*
X100699040Y-110901591D01*
X100698438Y-110868771D01*
X100710449Y-110757380D01*
X100743378Y-110644894D01*
X100794124Y-110541710D01*
X100797738Y-110535930D01*
X100834856Y-110488265D01*
X100870848Y-110466238D01*
X100908212Y-110469109D01*
X100945039Y-110492337D01*
X100983004Y-110519155D01*
X101011852Y-110525116D01*
X101037846Y-110511099D01*
X101043147Y-110506082D01*
X101061683Y-110470412D01*
X101062411Y-110424874D01*
X101047583Y-110377107D01*
X101019452Y-110334751D01*
X100984628Y-110307573D01*
X100932057Y-110291729D01*
X100868484Y-110288570D01*
X100806277Y-110298028D01*
X100776847Y-110308716D01*
X100715186Y-110351297D01*
X100658393Y-110415882D01*
X100608536Y-110497999D01*
X100567684Y-110593175D01*
X100537905Y-110696938D01*
X100521268Y-110804814D01*
X100518456Y-110867379D01*
X100342406Y-110867379D01*
X100350096Y-110836059D01*
X100381727Y-110685922D01*
X100401575Y-110551647D01*
X100410628Y-110425729D01*
X100411443Y-110369618D01*
X100406715Y-110264607D01*
X100392921Y-110183792D01*
X100369675Y-110126199D01*
X100336592Y-110090852D01*
X100295820Y-110077004D01*
X100252428Y-110083771D01*
X100209434Y-110113685D01*
X100165621Y-110167887D01*
X100125155Y-110237092D01*
X100102974Y-110278900D01*
X100070829Y-110338680D01*
X100031614Y-110411090D01*
X99988225Y-110490787D01*
X99943554Y-110572430D01*
X99936940Y-110584481D01*
X99896189Y-110659808D01*
X99860233Y-110728397D01*
X99830971Y-110786448D01*
X99810302Y-110830164D01*
X99800125Y-110855746D01*
X99799392Y-110859624D01*
X99558489Y-110859624D01*
X99560504Y-110859068D01*
X99582342Y-110847084D01*
X99616872Y-110820967D01*
X99643302Y-110792548D01*
X99644639Y-110790556D01*
X99656010Y-110766015D01*
X99673077Y-110720312D01*
X99694421Y-110657938D01*
X99718623Y-110583388D01*
X99744262Y-110501154D01*
X99769919Y-110415730D01*
X99794173Y-110331609D01*
X99815605Y-110253283D01*
X99821237Y-110231725D01*
X99839958Y-110151552D01*
X99848628Y-110091809D01*
X99847038Y-110048188D01*
X99834979Y-110016380D01*
X99812240Y-109992076D01*
X99809485Y-109989977D01*
X99783853Y-109973122D01*
X99763365Y-109970377D01*
X99735079Y-109980962D01*
X99726576Y-109984978D01*
X99704514Y-109998154D01*
X99684738Y-110017654D01*
X99663970Y-110048190D01*
X99638932Y-110094476D01*
X99611438Y-110150572D01*
X99584533Y-110206535D01*
X99562039Y-110252945D01*
X99546306Y-110284982D01*
X99539682Y-110297826D01*
X99539678Y-110297831D01*
X99526501Y-110295887D01*
X99496599Y-110286437D01*
X99457740Y-110272410D01*
X99417696Y-110256733D01*
X99384235Y-110242334D01*
X99365127Y-110232141D01*
X99364913Y-110231975D01*
X99356469Y-110212686D01*
X99360077Y-110174800D01*
X99362281Y-110164381D01*
X99367836Y-110105906D01*
X99361981Y-110041543D01*
X99346734Y-109978573D01*
X99324113Y-109924278D01*
X99296134Y-109885939D01*
X99282337Y-109875834D01*
X99237415Y-109861511D01*
X99199636Y-109871077D01*
X99168376Y-109905141D01*
X99143012Y-109964312D01*
X99127020Y-110027791D01*
X99077859Y-110241078D01*
X99018372Y-110445266D01*
X99014336Y-110457725D01*
X98988115Y-110549014D01*
X98976209Y-110618971D01*
X98306301Y-110618971D01*
X98385062Y-110411963D01*
X98498435Y-110150109D01*
X98600771Y-109934601D01*
X98652011Y-109831367D01*
X98693672Y-109750176D01*
X98727249Y-109688861D01*
X98754235Y-109645250D01*
X98776123Y-109617176D01*
X98794406Y-109602467D01*
X98810579Y-109598956D01*
X98826134Y-109604472D01*
X98827477Y-109605289D01*
X98847701Y-109612524D01*
X98875809Y-109610265D01*
X98919208Y-109597698D01*
X98929903Y-109594040D01*
X99013176Y-109567800D01*
X99094764Y-109548387D01*
X99181824Y-109534657D01*
X99281510Y-109525466D01*
X99393364Y-109519933D01*
X99584242Y-109520515D01*
G37*
G36*
X100273468Y-110326348D02*
G01*
X100277550Y-110359998D01*
X100277802Y-110409880D01*
X100274112Y-110470921D01*
X100270011Y-110510361D01*
X100263001Y-110552642D01*
X100250597Y-110574155D01*
X100226233Y-110579302D01*
X100183341Y-110572487D01*
X100178794Y-110571532D01*
X100139998Y-110563610D01*
X100116108Y-110556405D01*
X100106913Y-110545372D01*
X100112199Y-110525966D01*
X100131753Y-110493645D01*
X100165364Y-110443862D01*
X100172333Y-110433524D01*
X100206171Y-110384880D01*
X100235525Y-110345772D01*
X100256824Y-110320773D01*
X100265668Y-110314004D01*
X100273468Y-110326348D01*
G37*
G36*
X103866171Y-110662692D02*
G01*
X103894538Y-110673928D01*
X103896939Y-110676100D01*
X103909358Y-110703017D01*
X103912190Y-110739648D01*
X103904514Y-110770533D01*
X103902725Y-110773280D01*
X103879710Y-110795377D01*
X103845856Y-110818010D01*
X103808527Y-110837525D01*
X103775085Y-110850266D01*
X103752895Y-110852576D01*
X103748787Y-110849708D01*
X103742508Y-110831011D01*
X103734774Y-110798225D01*
X103733768Y-110793249D01*
X103725582Y-110754636D01*
X103718267Y-110724381D01*
X103717908Y-110723090D01*
X103723831Y-110701920D01*
X103748995Y-110683359D01*
X103786024Y-110669343D01*
X103827541Y-110661809D01*
X103866171Y-110662692D01*
G37*
G36*
X103799062Y-110435535D02*
G01*
X103808915Y-110453955D01*
X103816981Y-110475856D01*
X103814700Y-110493320D01*
X103798660Y-110513658D01*
X103767739Y-110542150D01*
X103735082Y-110569868D01*
X103710365Y-110588534D01*
X103700846Y-110593563D01*
X103691176Y-110582360D01*
X103675728Y-110553498D01*
X103663487Y-110526342D01*
X103635087Y-110459122D01*
X103670830Y-110445300D01*
X103711221Y-110432755D01*
X103749364Y-110424325D01*
X103780939Y-110422632D01*
X103799062Y-110435535D01*
G37*
D12*
%TO.C,C8*%
X106609664Y-88340000D02*
X106825336Y-88340000D01*
X106609664Y-89060000D02*
X106825336Y-89060000D01*
%TO.C,C6*%
X102390000Y-84537836D02*
X102390000Y-84322164D01*
X103110000Y-84537836D02*
X103110000Y-84322164D01*
%TO.C,R7*%
X97583641Y-82670000D02*
X97276359Y-82670000D01*
X97583641Y-83430000D02*
X97276359Y-83430000D01*
%TO.C,C18*%
X105350000Y-107727836D02*
X105350000Y-107512164D01*
X106070000Y-107727836D02*
X106070000Y-107512164D01*
%TO.C,R5*%
X101533859Y-97380000D02*
X101841141Y-97380000D01*
X101533859Y-98140000D02*
X101841141Y-98140000D01*
%TO.C,C9*%
X106792164Y-92730000D02*
X107007836Y-92730000D01*
X106792164Y-93450000D02*
X107007836Y-93450000D01*
%TO.C,J4*%
X97410000Y-115530000D02*
X97410000Y-114150000D01*
X98790000Y-115530000D02*
X97410000Y-115530000D01*
X100060000Y-112770000D02*
X105250000Y-112770000D01*
X100060000Y-115530000D02*
X100060000Y-112770000D01*
X100060000Y-115530000D02*
X105250000Y-115530000D01*
X105250000Y-115530000D02*
X105250000Y-112770000D01*
%TO.C,C14*%
X97402164Y-77900000D02*
X97617836Y-77900000D01*
X97402164Y-78620000D02*
X97617836Y-78620000D01*
%TO.C,U2*%
X95950000Y-75472500D02*
X95950000Y-74822500D01*
X95950000Y-75472500D02*
X95950000Y-76122500D01*
X99070000Y-75472500D02*
X99070000Y-74822500D01*
X99070000Y-75472500D02*
X99070000Y-76122500D01*
X96000000Y-76635000D02*
X95670000Y-76875000D01*
X95670000Y-76395000D01*
X96000000Y-76635000D01*
G36*
X96000000Y-76635000D02*
G01*
X95670000Y-76875000D01*
X95670000Y-76395000D01*
X96000000Y-76635000D01*
G37*
%TO.C,R1*%
X103630000Y-73236359D02*
X103630000Y-73543641D01*
X104390000Y-73236359D02*
X104390000Y-73543641D01*
%TO.C,C7*%
X102427836Y-82620000D02*
X102212164Y-82620000D01*
X102427836Y-83340000D02*
X102212164Y-83340000D01*
%TO.C,C16*%
X102937500Y-100157836D02*
X102937500Y-99942164D01*
X103657500Y-100157836D02*
X103657500Y-99942164D01*
%TO.C,C12*%
X101447500Y-84717836D02*
X101447500Y-84502164D01*
X102167500Y-84717836D02*
X102167500Y-84502164D01*
%TO.C,C15*%
X97577500Y-100112164D02*
X97577500Y-100327836D01*
X98297500Y-100112164D02*
X98297500Y-100327836D01*
%TO.C,C11*%
X103927500Y-87047836D02*
X103927500Y-86832164D01*
X104647500Y-87047836D02*
X104647500Y-86832164D01*
%TO.C,D2*%
X98900000Y-103560000D02*
X103900000Y-103560000D01*
X103900000Y-108960000D02*
X98900000Y-108960000D01*
X98400000Y-103760000D02*
X98160000Y-103430000D01*
X98640000Y-103430000D01*
X98400000Y-103760000D01*
G36*
X98400000Y-103760000D02*
G01*
X98160000Y-103430000D01*
X98640000Y-103430000D01*
X98400000Y-103760000D01*
G37*
%TO.C,U3*%
X97057500Y-83945000D02*
X100057500Y-83945000D01*
X97057500Y-86215000D02*
X100057500Y-86215000D01*
X96507500Y-84030000D02*
X96227500Y-84030000D01*
X96507500Y-83750000D01*
X96507500Y-84030000D01*
G36*
X96507500Y-84030000D02*
G01*
X96227500Y-84030000D01*
X96507500Y-83750000D01*
X96507500Y-84030000D01*
G37*
%TO.C,U1*%
X97920000Y-89140000D02*
X97920000Y-88730000D01*
X97920000Y-95710000D02*
X97920000Y-95060000D01*
X98570000Y-88490000D02*
X98220000Y-88490000D01*
X98570000Y-95710000D02*
X97920000Y-95710000D01*
X104490000Y-88490000D02*
X105140000Y-88490000D01*
X104490000Y-95710000D02*
X105140000Y-95710000D01*
X105140000Y-88490000D02*
X105140000Y-89140000D01*
X105140000Y-95710000D02*
X105140000Y-95060000D01*
X97920000Y-88490000D02*
X97680000Y-88160000D01*
X98160000Y-88160000D01*
X97920000Y-88490000D01*
G36*
X97920000Y-88490000D02*
G01*
X97680000Y-88160000D01*
X98160000Y-88160000D01*
X97920000Y-88490000D01*
G37*
%TO.C,R8*%
X96526359Y-105950000D02*
X96833641Y-105950000D01*
X96526359Y-106710000D02*
X96833641Y-106710000D01*
%TO.C,C1*%
X106486690Y-87031693D02*
X106639193Y-86879190D01*
X106995807Y-87540810D02*
X107148310Y-87388307D01*
%TO.C,R2*%
X99430000Y-73266359D02*
X99430000Y-73573641D01*
X100190000Y-73266359D02*
X100190000Y-73573641D01*
%TO.C,J2*%
X91100000Y-64770000D02*
X92480000Y-64770000D01*
X91100000Y-66150000D02*
X91100000Y-64770000D01*
X91100000Y-67420000D02*
X91100000Y-115790000D01*
X91100000Y-67420000D02*
X93860000Y-67420000D01*
X91100000Y-115790000D02*
X93860000Y-115790000D01*
X93860000Y-67420000D02*
X93860000Y-115790000D01*
%TO.C,R3*%
X101847500Y-86696359D02*
X101847500Y-87003641D01*
X102607500Y-86696359D02*
X102607500Y-87003641D01*
%TO.C,C3*%
X96437836Y-93010000D02*
X96222164Y-93010000D01*
X96437836Y-93730000D02*
X96222164Y-93730000D01*
%TO.C,C13*%
X97132164Y-72460000D02*
X97347836Y-72460000D01*
X97132164Y-73180000D02*
X97347836Y-73180000D01*
%TO.C,SW1*%
X104030000Y-75440000D02*
X104330000Y-75440000D01*
X104030000Y-79580000D02*
X104030000Y-75440000D01*
X104330000Y-79580000D02*
X104030000Y-79580000D01*
X106870000Y-75440000D02*
X107170000Y-75440000D01*
X107170000Y-75440000D02*
X107170000Y-79580000D01*
X107170000Y-79580000D02*
X106870000Y-79580000D01*
%TO.C,R9*%
X96466359Y-104400000D02*
X96773641Y-104400000D01*
X96466359Y-105160000D02*
X96773641Y-105160000D01*
%TO.C,C10*%
X104180000Y-97962164D02*
X104180000Y-98177836D01*
X104900000Y-97962164D02*
X104900000Y-98177836D01*
%TO.C,R6*%
X105783641Y-80550000D02*
X105476359Y-80550000D01*
X105783641Y-81310000D02*
X105476359Y-81310000D01*
%TO.C,C5*%
X104967500Y-87367836D02*
X104967500Y-87152164D01*
X105687500Y-87367836D02*
X105687500Y-87152164D01*
%TO.C,R4*%
X102887500Y-86696359D02*
X102887500Y-87003641D01*
X103647500Y-86696359D02*
X103647500Y-87003641D01*
%TO.C,C4*%
X96855336Y-88210000D02*
X96639664Y-88210000D01*
X96855336Y-88930000D02*
X96639664Y-88930000D01*
%TO.C,Y1*%
X98567500Y-98360000D02*
X98567500Y-101780000D01*
X98567500Y-101780000D02*
X102687500Y-101780000D01*
%TO.C,C17*%
X99509664Y-82690000D02*
X99725336Y-82690000D01*
X99509664Y-83410000D02*
X99725336Y-83410000D01*
%TO.C,C2*%
X102937500Y-97942164D02*
X102937500Y-98157836D01*
X103657500Y-97942164D02*
X103657500Y-98157836D01*
%TO.C,J3*%
X108840000Y-64780000D02*
X110220000Y-64780000D01*
X108840000Y-66160000D02*
X108840000Y-64780000D01*
X108840000Y-67430000D02*
X108840000Y-115800000D01*
X108840000Y-67430000D02*
X111600000Y-67430000D01*
X108840000Y-115800000D02*
X111600000Y-115800000D01*
X111600000Y-67430000D02*
X111600000Y-115800000D01*
%TO.C,J1*%
X96700000Y-64920000D02*
X96700000Y-63020000D01*
X96700000Y-68820000D02*
X96700000Y-66820000D01*
X106100000Y-63020000D02*
X96700000Y-63020000D01*
X106100000Y-64920000D02*
X106100000Y-63020000D01*
X106100000Y-68820000D02*
X106100000Y-66820000D01*
%TD*%
M02*
