M48
; DRILL file {KiCad 9.0.2} date 2025-10-06T12:20:07-0400
; FORMAT={-:-/ absolute / inch / decimal}
; #@! TF.CreationDate,2025-10-06T12:20:07-04:00
; #@! TF.GenerationSoftware,Kicad,Pcbnew,9.0.2
; #@! TF.FileFunction,Plated,1,2,PTH
FMAT,2
INCH
; #@! TA.AperFunction,Plated,PTH,ViaDrill
T1C0.0118
; #@! TA.AperFunction,Plated,PTH,ComponentDrill
T2C0.0236
; #@! TA.AperFunction,Plated,PTH,ComponentDrill
T3C0.0394
%
G90
G05
T1
X3.6886Y-2.9559
X3.7433Y-4.4803
X3.7433Y-4.5161
X3.7444Y-3.6722
X3.7449Y-2.5949
X3.753Y-3.0772
X3.753Y-3.122
X3.753Y-3.1756
X3.7535Y-3.0331
X3.7539Y-2.9571
X3.7539Y-2.9957
X3.7734Y-3.7079
X3.775Y-3.9165
X3.7843Y-3.4555
X3.7846Y-3.564
X3.7878Y-4.4799
X3.7878Y-4.5157
X3.7894Y-3.0776
X3.7909Y-4.3039
X3.7909Y-4.3429
X3.7909Y-4.3787
X3.7913Y-4.2307
X3.7913Y-4.265
X3.7937Y-2.9173
X3.7988Y-3.1744
X3.7992Y-3.122
X3.8003Y-3.5184
X3.8033Y-3.8813
X3.8069Y-3.4604
X3.8122Y-3.5482
X3.822Y-4.0161
X3.822Y-4.0654
X3.8313Y-3.4006
X3.8354Y-4.3425
X3.8354Y-4.3783
X3.8417Y-3.1902
X3.8453Y-3.1217
X3.8792Y-3.2945
X3.8831Y-2.9138
X3.8898Y-3.1657
X3.8911Y-3.3995
X3.8953Y-2.663
X3.8957Y-2.5933
X3.9006Y-3.7247
X3.912Y-3.8641
X3.9343Y-4.3197
X3.935Y-4.3575
X3.935Y-4.3933
X3.937Y-3.024
X3.9382Y-2.9772
X3.9386Y-3.0709
X3.9524Y-4.05
X3.9815Y-3.8165
X3.9831Y-4.0421
X3.9832Y-3.3369
X3.989Y-4.3571
X3.9892Y-3.2756
X3.9894Y-4.3209
X3.9894Y-4.3929
X3.9898Y-3.1161
X3.9909Y-2.9783
X3.9909Y-3.0248
X3.9909Y-3.0693
X3.9913Y-2.8917
X3.9913Y-2.9382
X4.0121Y-3.4691
X4.0287Y-3.7102
X4.0386Y-3.1165
X4.039Y-3.1675
X4.0398Y-3.0697
X4.0409Y-2.9787
X4.0409Y-3.0252
X4.0441Y-4.3563
X4.0445Y-4.3201
X4.0445Y-4.3921
X4.0468Y-3.8208
X4.0496Y-4.0512
X4.0591Y-3.9984
X4.0602Y-3.7091
X4.0635Y-3.5436
X4.07Y-3.3379
X4.0783Y-3.5717
X4.0791Y-3.6795
X4.0795Y-3.6256
X4.0906Y-2.5941
X4.0907Y-3.5216
X4.0913Y-2.663
X4.0945Y-3.7094
X4.1004Y-3.2142
X4.1232Y-2.8358
X4.1291Y-3.352
X4.1315Y-3.9366
X4.1323Y-3.9823
X4.1327Y-4.0335
X4.1413Y-3.2732
X4.1421Y-4.3394
X4.1421Y-4.3752
X4.1543Y-2.8693
X4.1547Y-2.9118
X4.1598Y-4.0969
X4.161Y-4.1374
X4.1697Y-3.7925
X4.1866Y-4.339
X4.1866Y-4.3748
X4.1902Y-2.8693
X4.1906Y-2.9118
X4.1913Y-4.4811
X4.1913Y-4.5169
X4.2007Y-3.5299
X4.2043Y-4.2787
X4.2142Y-3.315
X4.2147Y-3.3827
X4.2154Y-3.239
X4.2161Y-3.8551
X4.2189Y-3.9492
X4.2236Y-2.8693
X4.224Y-2.9118
X4.228Y-4.0402
X4.2358Y-4.4807
X4.2358Y-4.5165
X4.2406Y-2.5969
X4.2953Y-2.8563
T3
X3.6409Y-2.6043
X3.6409Y-2.7043
X3.6409Y-2.8043
X3.6409Y-2.9043
X3.6409Y-3.0043
X3.6409Y-3.1043
X3.6409Y-3.2043
X3.6409Y-3.3043
X3.6409Y-3.4043
X3.6409Y-3.5043
X3.6409Y-3.6043
X3.6409Y-3.7043
X3.6409Y-3.8043
X3.6409Y-3.9043
X3.6409Y-4.0043
X3.6409Y-4.1043
X3.6409Y-4.2043
X3.6409Y-4.3043
X3.6409Y-4.4043
X3.6409Y-4.5043
X3.8894Y-4.4941
X3.9894Y-4.4941
X4.0894Y-4.4941
X4.3394Y-2.6047
X4.3394Y-2.7047
X4.3394Y-2.8047
X4.3394Y-2.9047
X4.3394Y-3.0047
X4.3394Y-3.1047
X4.3394Y-3.2047
X4.3394Y-3.3047
X4.3394Y-3.4047
X4.3394Y-3.5047
X4.3394Y-3.6047
X4.3394Y-3.7047
X4.3394Y-3.8047
X4.3394Y-3.9047
X4.3394Y-4.0047
X4.3394Y-4.1047
X4.3394Y-4.2047
X4.3394Y-4.3047
X4.3394Y-4.4047
X4.3394Y-4.5047
T2
G00X3.822Y-2.6051
M15
G01X3.822Y-2.5815
M16
G05
G00X3.822Y-2.7795
M15
G01X3.822Y-2.7362
M16
G05
G00X4.1622Y-2.6051
M15
G01X4.1622Y-2.5815
M16
G05
G00X4.1622Y-2.7795
M15
G01X4.1622Y-2.7362
M16
G05
M30
